<svg width="40" height="40" viewBox="0 0 40 40" fill="none" xmlns="http://www.w3.org/2000/svg">
<path d="M35.781 35.1728L35.7814 35.1729C35.8949 35.2104 35.9883 35.2915 36.0419 35.398C36.0956 35.5047 36.1047 35.6283 36.0672 35.7417C36.0297 35.8551 35.9488 35.9489 35.8421 36.0026C35.7354 36.0562 35.6119 36.0653 35.4985 36.0279M35.781 35.1728L35.5141 35.9804M35.781 35.1728L35.7808 35.1727C35.7198 35.1531 33.5252 34.4482 29.7761 33.8886C31.1648 33.3129 32.1803 32.0163 32.3469 30.4652H33.0465C34.687 30.4652 36.0213 29.1292 36.0213 27.4872V11.2312C36.0213 9.58964 34.687 8.2536 33.0465 8.2536H31.9965V8.3036H31.9465V8.2536L35.781 35.1728ZM35.4985 36.0279C35.4985 36.0279 35.4985 36.0279 35.4984 36.0279L35.5141 35.9804M35.4985 36.0279C35.4985 36.0279 35.4986 36.0279 35.4986 36.0279L35.5141 35.9804M35.4985 36.0279C35.3665 35.9847 22.0855 31.7228 4.54687 36.0378L4.54685 36.0378C4.43091 36.0662 4.30841 36.0475 4.2063 35.9856C4.10419 35.9237 4.03083 35.8239 4.00237 35.7079C3.97391 35.592 3.99267 35.4695 4.05452 35.3674L4.0972 35.3932L4.05452 35.3674C4.11638 35.2653 4.21627 35.1919 4.3322 35.1634C6.4971 34.6317 8.68698 34.2075 10.8938 33.8926M35.5141 35.9804C35.3821 35.9372 22.0893 31.6704 4.53493 35.9892C4.43187 36.0145 4.32297 35.9978 4.23221 35.9428C4.14144 35.8879 4.07623 35.7991 4.05093 35.696C4.02563 35.5929 4.0423 35.484 4.09729 35.3933C4.15228 35.3025 4.24107 35.2373 4.34413 35.212C6.53567 34.6737 8.75283 34.2458 10.9872 33.9298C10.9559 33.9178 10.9248 33.9054 10.8938 33.8926M10.8938 33.8926C9.50099 33.3183 8.48116 32.0196 8.31456 30.4652M10.8938 33.8926C10.9269 33.8879 10.96 33.8832 10.9931 33.8785C9.56231 33.3232 8.51226 32.0003 8.35973 30.4152M8.31456 30.4652C8.31294 30.4502 8.31141 30.4351 8.30996 30.42L8.35973 30.4152M8.31456 30.4652H8.35973V30.4152M8.31456 30.4652L8.35973 30.4152M6.54659 30.4652L6.54653 30.4152V30.4652H6.54659ZM6.54659 30.4652C6.06341 30.4657 5.5954 30.2965 5.22434 29.987C4.85327 29.6776 4.60275 29.2475 4.51653 28.7721L4.56573 28.7632L4.51653 28.7721C2.85889 19.6239 4.55818 12.9324 9.58645 8.90419M6.54659 30.4652L9.58645 8.90419M9.58645 8.90419L9.61773 8.9432L9.58647 8.90418C9.58646 8.90418 9.58646 8.90419 9.58645 8.90419ZM35.1213 20.3824V11.2316C35.1212 10.6811 34.9027 10.153 34.5137 9.76345C34.1247 9.37388 33.597 9.15455 33.0465 9.1536C33.0465 9.1536 33.0465 9.1536 33.0464 9.1536M35.1213 20.3824L33.0465 9.1036L33.0464 9.1536M35.1213 20.3824H23.1397V13.94C23.1397 13.0084 22.3813 12.25 21.4497 12.25H16.7061C15.7745 12.25 15.0161 13.0084 15.0161 13.94V20.3828H13.5073L35.1213 20.3824ZM33.0464 9.1536L11.4577 9.1536H11.4576C10.9828 9.15197 10.5215 9.31158 10.1493 9.60628M33.0464 9.1536L10.1493 9.60628M10.1493 9.60628C10.1493 9.60632 10.1492 9.60636 10.1492 9.6064L10.1181 9.5672L10.1494 9.6062C10.1494 9.60623 10.1494 9.60625 10.1493 9.60628ZM17.2365 8.3036H17.1865V8.2536H17.2365V8.3036ZM30.4738 5.63408C30.4728 5.63405 30.4718 5.63403 30.4708 5.63401L30.4697 5.684L30.4769 5.63451L30.4738 5.63408ZM24.0042 29.5652H23.1393V21.2824H35.1217V27.4868C35.1217 28.6325 34.1908 29.5648 33.0469 29.5648H33.0261L33.0257 29.5652H32.3465C32.1211 27.4619 30.3371 25.8184 28.1753 25.8184C26.0135 25.8184 24.2295 27.4619 24.0042 29.5652ZM7.61923 12.3H7.55813C7.56982 12.2833 7.58155 12.2666 7.59332 12.25H7.65462C7.64278 12.2666 7.63099 12.2833 7.61923 12.3ZM6.54653 29.5652H6.54645C6.27416 29.5657 6.01036 29.4704 5.80113 29.2962C5.59191 29.1219 5.45055 28.8797 5.40173 28.6119C4.91853 25.944 4.73214 23.5017 4.83306 21.2828H15.0161V26.6723C14.2898 26.1188 13.4011 25.8183 12.4861 25.8184C10.3243 25.8184 8.5403 27.4619 8.31496 29.5652H6.54653ZM28.1753 33.3112C26.3577 33.3112 24.8789 31.8324 24.8789 30.0152C24.8789 28.1972 26.3577 26.7184 28.1753 26.7184C29.9929 26.7184 31.4717 28.1972 31.4717 30.0152C31.4717 31.8324 29.9929 33.3112 28.1753 33.3112ZM22.2397 29.5652H16.6577C16.5814 28.8598 16.3262 28.1853 15.9161 27.6059V13.94C15.9161 13.5044 16.2705 13.15 16.7061 13.15H21.4497C21.8853 13.15 22.2397 13.5044 22.2397 13.94V29.5652ZM18.0865 5.5564C18.0865 5.17404 18.3696 4.86626 18.7168 4.85055L30.3744 6.52906C30.3744 6.52906 30.3745 6.52907 30.3745 6.52908C30.3961 6.53228 30.4177 6.5336 30.4389 6.5336C30.7987 6.5336 31.0969 6.84727 31.0969 7.2396V8.2536H18.0865V5.5564ZM4.89683 20.3828C5.13141 17.5863 5.8521 15.1707 7.06164 13.15H12.2557C12.4498 13.15 12.6077 13.3077 12.6077 13.5016V20.3828H4.89683ZM9.19013 30.0152C9.19013 28.1972 10.669 26.7184 12.4861 26.7184C14.3041 26.7184 15.7829 28.1972 15.7829 30.0152C15.7829 31.8324 14.3041 33.3112 12.4861 33.3112C10.6689 33.3112 9.19013 31.8324 9.19013 30.0152ZM24.5927 32.1942C24.8881 32.6789 25.2784 33.098 25.7394 33.4268C22.663 33.1752 18.9959 33.1026 14.8999 33.4412C15.8607 32.7631 16.5258 31.6941 16.6573 30.4652H24.0042C24.0711 31.0776 24.2719 31.6679 24.5927 32.1942Z" fill="#B1B6B9" stroke="#B1B6B9" stroke-width="0.1"/>
<path d="M28.1753 30.986L28.1754 30.936C27.9313 30.9357 27.6972 30.8386 27.5246 30.6659C27.3519 30.4933 27.2548 30.2593 27.2545 30.0151C27.2546 29.5068 27.6678 29.094 28.1753 29.094C28.6829 29.094 29.0961 29.5072 29.0961 30.0151C29.0958 30.2593 28.9987 30.4933 28.8261 30.6659C28.6535 30.8386 28.4194 30.9357 28.1753 30.936L28.1753 30.986ZM28.1753 30.986C27.918 30.9857 27.6712 30.8833 27.4892 30.7013C27.3072 30.5193 27.2048 30.2726 27.2045 30.0152C27.2045 29.4792 27.6401 29.044 28.1753 29.044C28.7105 29.044 29.1461 29.4796 29.1461 30.0152C29.1458 30.2726 29.0434 30.5193 28.8614 30.7013C28.6794 30.8833 28.4327 30.9857 28.1753 30.986ZM32.9945 16.6415V13.9372C32.9945 13.5032 32.6417 13.15 32.2077 13.15H29.3509V17.4288L32.2077 17.4288L32.2077 17.4288M32.9945 16.6415L33.0445 16.6416C33.0443 16.8635 32.9561 17.0763 32.7992 17.2332C32.6424 17.3901 32.4296 17.4785 32.2077 17.4788V17.4288M32.9945 16.6415C32.9943 16.8502 32.9114 17.0503 32.7639 17.1979C32.6164 17.3454 32.4164 17.4285 32.2077 17.4288M32.9945 16.6415L32.2077 17.4288M26.1909 18.3288H26.1909H32.2077H32.2078C32.655 18.3282 33.0838 18.1503 33.4 17.834C33.7163 17.5177 33.8941 17.0889 33.8945 16.6416V16.6416V13.9372V13.9371C33.8941 13.4899 33.7163 13.0611 33.4 12.7448C33.0838 12.4285 32.655 12.2505 32.2078 12.25H32.2077L26.1909 12.25L26.1909 12.25C25.7436 12.2504 25.3147 12.4283 24.9984 12.7446C24.6821 13.0609 24.5042 13.4898 24.5037 13.9371V13.9372V16.6416V16.6416C24.5042 17.089 24.6821 17.5178 24.9984 17.8342C25.3147 18.1505 25.7436 18.3284 26.1909 18.3288ZM28.1753 28.194C27.1713 28.194 26.3545 29.0108 26.3545 30.0152C26.3545 31.0196 27.1713 31.836 28.1753 31.836C29.1793 31.836 29.9961 31.0192 29.9961 30.0152C29.9961 29.0112 29.1794 28.194 28.1753 28.194ZM14.3073 30.0152C14.3073 29.0108 13.4905 28.194 12.4861 28.194C11.4817 28.194 10.6653 29.0108 10.6653 30.0152C10.6653 31.0196 11.4821 31.836 12.4861 31.836C13.4901 31.836 14.3073 31.0192 14.3073 30.0152ZM11.5653 30.0152C11.5653 29.5068 11.9785 29.094 12.4861 29.094C12.9937 29.094 13.4073 29.5072 13.4073 30.0152C13.4073 30.5227 12.9937 30.936 12.4861 30.936C11.9785 30.936 11.5653 30.5228 11.5653 30.0152ZM25.4037 13.9372C25.4037 13.5032 25.7573 13.15 26.1909 13.15H28.4509V17.4288H26.191C25.9822 17.4286 25.7821 17.3456 25.6345 17.198C25.4869 17.0504 25.4039 16.8503 25.4037 16.6415V13.9372ZM17.2233 22.2264C17.104 22.2264 16.9895 22.2738 16.9051 22.3582C16.8207 22.4426 16.7733 22.557 16.7733 22.6764V23.9224C16.7733 24.0417 16.8207 24.1562 16.9051 24.2406C16.9895 24.325 17.104 24.3724 17.2233 24.3724C17.3427 24.3724 17.4571 24.325 17.5415 24.2406C17.6259 24.1562 17.6733 24.0417 17.6733 23.9224V22.6764C17.6733 22.557 17.6259 22.4426 17.5415 22.3582C17.4571 22.2738 17.3427 22.2264 17.2233 22.2264ZM13.0573 24.3724C13.1767 24.3724 13.2911 24.325 13.3755 24.2406C13.4599 24.1562 13.5073 24.0417 13.5073 23.9224V22.6764C13.5073 22.557 13.4599 22.4426 13.3755 22.3582C13.2911 22.2738 13.1767 22.2264 13.0573 22.2264C12.938 22.2264 12.8235 22.2738 12.7391 22.3582C12.6547 22.4426 12.6073 22.557 12.6073 22.6764V23.9224C12.6073 24.0417 12.6547 24.1562 12.7391 24.2406C12.8235 24.325 12.938 24.3724 13.0573 24.3724Z" fill="#B1B6B9" stroke="#B1B6B9" stroke-width="0.1"/>
</svg>
