<svg width="19" height="13" viewBox="0 0 19 13" fill="none" xmlns="http://www.w3.org/2000/svg">
<path d="M1.10035 1.42549C1.11405 1.34158 1.14622 1.25492 1.19506 1.19177C1.24219 1.13083 1.30129 1.09512 1.3775 1.09512H17.6226C17.6988 1.09512 17.7579 1.13083 17.805 1.19177C17.8538 1.25494 17.886 1.3416 17.8997 1.42552C18.0964 2.63001 18.0964 4.53038 17.896 7.24283C17.8655 7.65744 17.5765 7.94022 17.2241 7.94022H16.79V6.5744C16.79 6.05367 16.3665 5.63016 15.8457 5.63016H3.15433C2.6336 5.63016 2.21009 6.05367 2.21009 6.5744V7.94022H1.77598C1.42356 7.94022 1.13461 7.65744 1.10409 7.24282L1.10409 7.24279C0.903644 4.53034 0.903709 2.63002 1.10035 1.42549ZM1.10035 1.42549L1.00165 1.40937M1.10035 1.42549L1.00165 1.40937M1.00165 1.40937C1.03286 1.21829 1.14998 0.995117 1.3775 0.995117H17.6226C17.85 0.995117 17.9672 1.21829 17.9984 1.40941L1.00165 1.40937ZM7.26469 9.64756L7.26483 9.64755C7.46279 9.6397 7.63077 9.79352 7.6389 9.99224M7.26469 9.64756L6.81625 12.4245L6.89505 12.4861C7.40806 11.8293 7.67696 10.9202 7.6389 9.99224M7.26469 9.64756C7.16936 9.65147 7.07948 9.6931 7.01484 9.76327M7.26469 9.64756L7.01484 9.76327M7.6389 9.99224L7.53899 9.99633L7.6389 9.99223C7.6389 9.99224 7.6389 9.99224 7.6389 9.99224ZM6.61132 12.6244L6.61136 12.5244L6.61121 12.6244C6.61125 12.6244 6.61128 12.6244 6.61132 12.6244ZM6.61132 12.6244C6.54392 12.6243 6.47789 12.6054 6.42075 12.5696M6.61132 12.6244L6.42075 12.5696M4.05427 12.5741H4.05424C3.98434 12.5741 3.91596 12.5537 3.85746 12.5154C3.79896 12.4772 3.75287 12.4227 3.72482 12.3587C3.69678 12.2947 3.68799 12.2239 3.69953 12.1549L4.05427 12.5741ZM4.05427 12.5741C4.15109 12.5741 4.24801 12.5351 4.31892 12.4581M4.05427 12.5741L4.31892 12.4581M12.0801 10.0212L12.0801 10.0218C12.0487 10.788 12.2669 11.5245 12.6721 12.0432L12.0801 10.0212ZM12.0801 10.0212C12.0835 9.9262 12.0491 9.83373 11.9845 9.764C11.9199 9.69426 11.8303 9.65293 11.7353 9.64904C11.6404 9.64514 11.5477 9.67899 11.4776 9.7432C11.4075 9.8074 11.3657 9.89674 11.3612 9.9917L11.3612 9.99226M12.0801 10.0212L11.3612 9.99226M11.3612 9.99226C11.3231 10.9202 11.5921 11.8293 12.105 12.486M11.3612 9.99226L12.2748 12.4982M12.3888 12.6244C12.4562 12.6244 12.5222 12.6054 12.5794 12.5697C12.6365 12.5339 12.6825 12.4829 12.712 12.4223C12.7415 12.3617 12.7535 12.2941 12.7464 12.227C12.7394 12.16 12.7136 12.0963 12.6721 12.0432L12.3888 12.5244M12.3888 12.6244L12.3888 12.5244M12.3888 12.6244C12.3889 12.6244 12.3889 12.6244 12.3889 12.6244L12.3888 12.5244M12.3888 12.6244C12.3341 12.6245 12.2801 12.6121 12.231 12.5881L12.2748 12.4982M12.3888 12.5244C12.3493 12.5245 12.3103 12.5155 12.2748 12.4982M12.2748 12.4982L12.231 12.5881C12.1818 12.5641 12.1387 12.5292 12.105 12.486M12.105 12.486L12.1839 12.4245L12.1051 12.4861C12.1051 12.4861 12.105 12.4861 12.105 12.486ZM18.6135 7.29577C18.5567 8.0673 17.9636 8.65975 17.2241 8.65975H1.77598C1.03641 8.65975 0.44336 8.06729 0.386474 7.29574C0.1829 4.54043 0.18282 2.57996 0.390217 1.30959L18.6135 7.29577ZM18.6135 7.29577C18.8172 4.54042 18.8172 2.57994 18.6098 1.30958C18.5206 0.763231 18.1299 0.375586 17.6225 0.375586H1.37746C0.869989 0.375586 0.479343 0.763225 0.390219 1.30958L18.6135 7.29577ZM7.01484 9.76327C6.95019 9.83345 6.91608 9.92643 6.91999 10.0218M7.01484 9.76327L6.91999 10.0218M6.91999 10.0218C6.95142 10.7881 6.73317 11.5245 6.32802 12.0432L6.91999 10.0218ZM6.28813 12.4223C6.2586 12.3617 6.24668 12.294 6.25373 12.227L6.28813 12.4223ZM6.28813 12.4223C6.31766 12.4828 6.36361 12.5339 6.42075 12.5696M6.28813 12.4223L6.42075 12.5696M4.57101 9.98831C4.5813 9.79013 4.75056 9.63707 4.949 9.64776C4.94907 9.64776 4.94915 9.64777 4.94922 9.64777L4.94378 9.74762L4.57101 9.98831ZM4.57101 9.98831C4.53105 10.7553 4.24412 11.4774 3.78981 11.9705L4.57101 9.98831ZM4.31892 12.4581C4.88938 11.839 5.24126 10.9523 5.2895 10.0258L4.31892 12.4581ZM14.4291 9.98831C14.4188 9.79003 14.2495 9.63701 14.0509 9.64777M14.4291 9.98831L14.3293 9.99351L14.4291 9.9883C14.4291 9.98831 14.4291 9.98831 14.4291 9.98831ZM14.4291 9.98831C14.4691 10.7553 14.7561 11.4775 15.2103 11.9704C15.275 12.0406 15.3091 12.1336 15.3052 12.2289C15.3013 12.3242 15.2598 12.414 15.1897 12.4787C15.1896 12.4787 15.1896 12.4787 15.1895 12.4788L15.1218 12.4052L14.0509 9.64777M14.0509 9.64777C14.051 9.64777 14.0511 9.64776 14.0512 9.64776L14.0564 9.74762L14.0509 9.64777ZM13.3808 2.27815L13.3101 2.34886L13.3808 2.27815C13.3474 2.24474 13.3077 2.21824 13.2641 2.20016C13.2204 2.18209 13.1736 2.17279 13.1264 2.17279H5.87367C5.77825 2.17279 5.68674 2.2107 5.61928 2.27817C5.55181 2.34564 5.5139 2.43714 5.5139 2.53256C5.5139 2.62797 5.55181 2.71948 5.61928 2.78695C5.68674 2.85442 5.77825 2.89232 5.87367 2.89232H13.1264C13.2218 2.89232 13.3134 2.85442 13.3808 2.78695C13.4483 2.71948 13.4862 2.62797 13.4862 2.53256C13.4862 2.48531 13.4769 2.43852 13.4588 2.39487C13.4407 2.35122 13.4142 2.31156 13.3808 2.27815ZM11.5451 9.81694C11.4945 9.8633 11.4643 9.9278 11.4611 9.99637L11.9802 10.0177C11.9826 9.94907 11.9578 9.88231 11.9112 9.83196C11.8645 9.78161 11.7998 9.75177 11.7312 9.74895C11.6627 9.74614 11.5958 9.77058 11.5451 9.81694ZM15.8457 6.34969C15.9696 6.34969 16.0704 6.45058 16.0704 6.5744V7.94022H2.92962V6.5744C2.92962 6.45058 3.03051 6.34969 3.15433 6.34969H15.8457ZM9.50003 9.64725C9.40462 9.64725 9.31311 9.68516 9.24564 9.75263C9.17817 9.8201 9.14027 9.9116 9.14027 10.007V12.2646C9.14027 12.3601 9.17817 12.4516 9.24564 12.519C9.31311 12.5865 9.40462 12.6244 9.50003 12.6244C9.59545 12.6244 9.68696 12.5865 9.75443 12.519C9.82189 12.4516 9.8598 12.3601 9.8598 12.2646V10.007C9.8598 9.9116 9.82189 9.8201 9.75443 9.75263C9.68696 9.68516 9.59545 9.64725 9.50003 9.64725ZM15.7983 2.07998C15.5489 2.07998 15.3458 2.28314 15.3458 2.53252C15.3458 2.78195 15.5489 2.98506 15.7983 2.98506C16.0477 2.98506 16.2508 2.7819 16.2508 2.53252C16.2508 2.28314 16.0477 2.07998 15.7983 2.07998Z" fill="#1B88D7" stroke="#1B88D7" stroke-width="0.2"/>
</svg>
