<svg width="15" height="15" viewBox="0 0 15 15" fill="none" xmlns="http://www.w3.org/2000/svg">
<path d="M14.0625 7.47223H0.9375C0.420615 7.47223 0 7.89284 0 8.40973C0 8.92661 0.420615 9.34723 0.9375 9.34723H14.0625C14.5794 9.34723 15 8.92661 15 8.40973C15 7.89284 14.5794 7.47223 14.0625 7.47223ZM14.0625 8.72221H0.9375C0.765615 8.72221 0.62499 8.5822 0.62499 8.4097C0.62499 8.2372 0.765615 8.09719 0.9375 8.09719H14.0625C14.2344 8.09719 14.375 8.2372 14.375 8.4097C14.375 8.5822 14.2344 8.72221 14.0625 8.72221Z" fill="#1B88D7"/>
<path d="M14.1494 8.7341C13.98 8.68723 13.81 8.78285 13.7632 8.94911L12.9019 11.9641C12.7113 12.631 12.0932 13.0972 11.3994 13.0972H3.60253C2.90878 13.0972 2.29129 12.631 2.10004 11.9641L1.23877 8.94908C1.1919 8.78282 1.02127 8.6872 0.852523 8.73407C0.813048 8.7453 0.776177 8.7642 0.744024 8.78971C0.711871 8.81521 0.685069 8.84681 0.665154 8.8827C0.645238 8.91858 0.632602 8.95804 0.62797 8.99882C0.623337 9.0396 0.626799 9.08089 0.638157 9.12032L1.4994 12.1353C1.76626 13.0697 2.63064 13.7222 3.60253 13.7222H11.3988C12.3706 13.7222 13.2357 13.0697 13.5025 12.1353L14.3638 9.12032C14.4113 8.95471 14.3157 8.78159 14.1494 8.7341Z" fill="#1B88D7"/>
<path d="M3.60219 11.8478C3.46344 11.8478 3.3403 11.7541 3.30157 11.621L2.89596 10.1997C2.84908 10.0341 2.6772 9.93721 2.50971 9.9847C2.34409 10.0322 2.24782 10.2047 2.29534 10.3709L2.70096 11.7922C2.81472 12.1928 3.18597 12.4722 3.60222 12.4722C3.77472 12.4722 3.91473 12.3328 3.91473 12.1603C3.9147 11.9878 3.77469 11.8478 3.60219 11.8478ZM4.20219 13.1297C4.04782 13.0541 3.86094 13.1147 3.7828 13.2697L3.15781 14.5197C3.08094 14.6741 3.14343 14.8616 3.29782 14.9391C3.33453 14.9576 3.37452 14.9686 3.4155 14.9715C3.45648 14.9745 3.49763 14.9693 3.5366 14.9563C3.57557 14.9433 3.61158 14.9227 3.64258 14.8957C3.67357 14.8688 3.69893 14.8359 3.71721 14.7991L4.3422 13.5491C4.41907 13.3947 4.35655 13.2072 4.20219 13.1297ZM11.8428 14.5204L11.2178 13.2703C11.1403 13.1153 10.9528 13.0535 10.7984 13.1303C10.6441 13.2078 10.5816 13.3953 10.6584 13.5497L11.2834 14.7997C11.3094 14.8516 11.3493 14.8952 11.3986 14.9256C11.448 14.9561 11.5048 14.9722 11.5628 14.9722C11.6097 14.9722 11.6572 14.9616 11.7028 14.9397C11.8572 14.8622 11.9197 14.6747 11.8428 14.5204ZM12.5534 0.027832C12.2347 0.027832 11.9347 0.152197 11.7091 0.377842L10.7172 1.36972C10.5953 1.49159 10.5953 1.68973 10.7172 1.8116C10.8391 1.93348 11.0372 1.93348 11.1591 1.8116L12.1509 0.820342C12.2578 0.712852 12.4009 0.653467 12.5565 0.653467C12.8703 0.653467 13.1253 0.908467 13.1253 1.22221V7.78471C13.1253 7.95721 13.2653 8.09722 13.4378 8.09722C13.6103 8.09722 13.7503 7.95721 13.7509 7.78409V1.22159C13.7509 0.563467 13.2159 0.027832 12.5534 0.027832Z" fill="#1B88D7"/>
<path d="M11.472 1.68243L10.847 1.05744C10.7752 0.985572 10.6758 0.952437 10.5752 0.969927L9.01267 1.22619C8.89768 1.24432 8.80328 1.32556 8.76643 1.43619C8.72957 1.54681 8.75767 1.66869 8.83894 1.7518L10.7139 3.68305C10.7727 3.74493 10.8546 3.77806 10.9377 3.77806C10.9671 3.77806 10.9971 3.7737 11.0271 3.76555C11.0817 3.74959 11.1309 3.71895 11.1694 3.67697C11.2078 3.63499 11.2341 3.58326 11.2452 3.52743L11.5577 1.96494C11.5678 1.91443 11.5652 1.86223 11.5503 1.81295C11.5353 1.76367 11.5084 1.71883 11.472 1.68243ZM10.7477 2.82117L9.70328 1.74556L10.5176 1.61244L10.9108 2.00557L10.7477 2.82117ZM7.40828 3.81369C7.28641 3.69181 7.08827 3.69181 6.9664 3.81369L6.34141 4.43868C6.21953 4.56055 6.21953 4.75869 6.34141 4.88056C6.40267 4.94118 6.48265 4.97182 6.56266 4.97182C6.64267 4.97182 6.72265 4.94121 6.78329 4.88056L7.40828 4.25557C7.53016 4.13367 7.53016 3.93556 7.40828 3.81369ZM8.65829 5.06367C8.53642 4.94179 8.33828 4.94179 8.21641 5.06367L7.59142 5.68866C7.46954 5.81053 7.46954 6.00867 7.59142 6.13054C7.65022 6.18898 7.72976 6.22179 7.81267 6.2218C7.89268 6.2218 7.97266 6.19119 8.0333 6.13054L8.65829 5.50555C8.78017 5.38368 8.78017 5.18554 8.65829 5.06367ZM9.28328 3.18867C9.16141 3.06679 8.96327 3.06679 8.8414 3.18867L8.21641 3.81366C8.09453 3.93553 8.09453 4.13367 8.21641 4.25554C8.27767 4.31616 8.35765 4.3468 8.43766 4.3468C8.51767 4.3468 8.59765 4.31619 8.65829 4.25554L9.28328 3.63055C9.40516 3.50868 9.40516 3.31054 9.28328 3.18867Z" fill="#1B88D7"/>
</svg>
