<svg width="40" height="40" viewBox="0 0 40 40" fill="none" xmlns="http://www.w3.org/2000/svg">
<path d="M34.5643 27.0107H34.6143V26.9607V25.3778C34.6143 24.1814 35.5842 23.2116 36.7805 23.2116C37.9768 23.2116 38.9467 24.1814 38.9467 25.3778V36.7752V36.7755C38.9537 37.914 38.0763 38.8626 36.9407 38.9443C35.8051 39.026 34.8009 38.2126 34.6449 37.0849L34.639 37.0417H34.5954H5.40539H5.36202L5.35589 37.0847C5.19562 38.2083 4.19348 39.0165 3.06138 38.935C1.92929 38.8536 1.05313 37.9103 1.05538 36.7753V36.7752V23.4782C1.05538 22.2819 2.02514 21.312 3.22149 21.312C4.41783 21.312 5.38767 22.2819 5.38767 23.4782V23.7948V23.8448H5.43767H11.7696C13.1408 23.8448 14.2523 24.9564 14.2523 26.3276V26.9607V27.0107H14.3023H34.5643ZM9.86997 28.1771H9.81997V28.2271V30.7599C9.81997 31.4869 10.4093 32.0763 11.1364 32.0763H34.5143H34.5643H34.5644L34.5643 32.0263H34.6143V28.2271V28.1771H34.5643H9.86997ZM13.036 27.0107H13.086V26.9607V26.3276C13.086 25.6005 12.4966 25.0112 11.7696 25.0112H5.43774H5.38774V25.0612V26.9607V27.0107H5.43774H13.036ZM5.43767 28.1771H5.38767V28.2271V35.8253V35.8753H5.43767H34.5643H34.6143V35.8253V33.2926V33.2426H34.5643H11.1364C9.7652 33.2426 8.65364 32.131 8.65364 30.7599V28.2271V28.1771H8.60364H5.43767ZM3.22156 37.775C3.77371 37.775 4.22134 37.3273 4.22134 36.7752V23.4782C4.22134 22.9261 3.77371 22.4784 3.22156 22.4784C2.66941 22.4784 2.22178 22.9261 2.22178 23.4782V36.7752C2.22178 37.3273 2.66941 37.775 3.22156 37.775ZM36.7805 37.775C37.3326 37.775 37.7803 37.3273 37.7803 36.7752V25.3778C37.7803 24.8256 37.3326 24.378 36.7805 24.378C36.2284 24.378 35.7807 24.8256 35.7807 25.3778V36.7752C35.7807 37.3273 36.2284 37.775 36.7805 37.775Z" fill="#B1B6B9" stroke="white" stroke-width="0.1"/>
<path d="M16.4225 15.3426C16.5319 15.4519 16.6802 15.5133 16.8348 15.5133C16.9894 15.5133 17.1378 15.4519 17.2471 15.3426L23.5784 9.01135C23.5785 9.01125 23.5786 9.01115 23.5787 9.01105C23.6847 8.90109 23.7434 8.75391 23.7421 8.60114C23.7407 8.44823 23.6794 8.30196 23.5713 8.19384L23.6066 8.15848L23.5713 8.19384C23.4631 8.08571 23.3169 8.02437 23.164 8.02304C23.0112 8.02171 22.864 8.08039 22.7541 8.18643L16.4225 14.5179C16.4225 14.5179 16.4225 14.5179 16.4225 14.5179C16.3132 14.6273 16.2518 14.7756 16.2518 14.9302C16.2518 15.0849 16.3132 15.2332 16.4225 15.3426C16.4225 15.3426 16.4225 15.3426 16.4225 15.3426ZM16.4225 15.3426L16.3871 15.3779M16.4225 15.3426L16.3871 15.3779M16.3871 15.3779C16.5059 15.4966 16.6669 15.5633 16.8348 15.5633C17.0027 15.5633 17.1637 15.4966 17.2825 15.3779H16.3871ZM16.6139 10.9102L16.6139 10.9102L16.6132 10.911C16.5595 10.9671 16.4951 11.0119 16.4239 11.0428C16.3526 11.0737 16.2759 11.0901 16.1982 11.0909C16.1206 11.0918 16.0435 11.0771 15.9716 11.0478C15.8997 11.0185 15.8343 10.9751 15.7794 10.9201C15.7245 10.8652 15.6811 10.7999 15.6518 10.728C15.6224 10.6561 15.6078 10.579 15.6086 10.5013C15.6095 10.4237 15.6258 10.347 15.6567 10.2757C15.6876 10.2045 15.7324 10.1401 15.7886 10.0864L15.7886 10.0864L15.7893 10.0856L18.3218 7.55319C18.4317 7.44715 18.5789 7.38848 18.7317 7.3898C18.8846 7.39113 19.0308 7.45247 19.139 7.5606L19.139 7.5606C19.2471 7.66872 19.3084 7.81499 19.3098 7.9679C19.3111 8.12067 19.2524 8.26785 19.1464 8.37781L16.6139 10.9102ZM20.8541 15.1518L20.8541 15.1518L20.8549 15.1511L23.3872 12.6187C23.4973 12.5135 23.6442 12.4556 23.7965 12.4573C23.9489 12.4589 24.0947 12.5202 24.2025 12.628C24.3103 12.7359 24.3716 12.8816 24.3733 13.0341C24.375 13.1863 24.317 13.3332 24.2118 13.4433C24.2117 13.4435 24.2116 13.4436 24.2114 13.4437L21.6795 15.9757L21.6795 15.9757L21.6787 15.9765C21.625 16.0326 21.5606 16.0774 21.4894 16.1083C21.4181 16.1392 21.3414 16.1555 21.2638 16.1564C21.1861 16.1572 21.109 16.1426 21.0371 16.1132C20.9652 16.0839 20.8999 16.0405 20.845 15.9856C20.79 15.9307 20.7466 15.8653 20.7173 15.7934C20.688 15.7215 20.6733 15.6445 20.6742 15.5668C20.675 15.4891 20.6914 15.4124 20.7223 15.3412C20.7532 15.2699 20.798 15.2055 20.8541 15.1518Z" fill="#B1B6B9" stroke="white" stroke-width="0.1"/>
<path d="M34.5142 2.21642H34.5642H35.1972H35.1973V2.26642L34.5142 2.21642ZM34.5142 2.21642V2.26642V18.7293C34.5142 18.9105 34.5862 19.0843 34.7143 19.2124C34.8424 19.3405 35.0162 19.4125 35.1973 19.4125C35.3785 19.4125 35.5523 19.3405 35.6804 19.2124C35.8085 19.0843 35.8805 18.9105 35.8805 18.7293V13.6638C35.8805 13.5091 35.942 13.3608 36.0513 13.2514C36.1607 13.1421 36.309 13.0806 36.4637 13.0806C37.174 13.0806 37.7529 12.5181 37.7791 11.8142M34.5142 2.21642L37.7791 11.8142M37.7791 11.8142H37.7802V11.7642V4.79944V4.79922H37.7302L37.7791 11.8142ZM2.90474 18.7293V10.1717C2.90166 10.0746 2.8774 9.97939 2.83366 9.89265C2.78991 9.80592 2.72774 9.72979 2.65149 9.6696L2.90474 18.7293ZM2.90474 18.7293C2.90266 18.9774 2.95053 19.2233 3.0455 19.4525M2.90474 18.7293L3.0455 19.4525M6.1623 8.74749L6.16223 8.74741C5.9535 8.92206 5.7851 9.13987 5.66861 9.38584C5.55217 9.63173 5.49037 9.89993 5.48747 10.172V18.6554C5.49485 18.8349 5.43631 19.0109 5.32286 19.1502C5.20919 19.2898 5.04828 19.3829 4.87059 19.4119L4.86727 19.4124L4.86726 19.4123C4.76639 19.4218 4.66468 19.4083 4.56982 19.3727C4.47529 19.3373 4.39003 19.2809 4.32043 19.2077C4.25658 19.1457 4.20598 19.0714 4.17171 18.9892C4.13734 18.9069 4.12011 18.8183 4.12107 18.7291M6.1623 8.74749L4.17107 18.7293M6.1623 8.74749L6.16464 8.74525C6.56861 8.36023 6.88641 7.89397 7.0971 7.3772C7.30768 6.86071 7.40649 6.30548 7.38703 5.74806C7.38686 4.77903 7.1002 3.89819 6.63493 3.25833C6.16957 2.61835 5.52272 2.21642 4.80431 2.21642C4.08589 2.21642 3.43904 2.61835 2.97368 3.25833C2.50841 3.89819 2.22175 4.77902 2.22158 5.74803C2.20169 6.30506 2.29992 6.85999 2.5098 7.37635C2.7198 7.89299 3.03681 8.3593 3.43999 8.74461L3.43991 8.7447L3.44254 8.74689C3.65201 8.92129 3.82115 9.13905 3.93829 9.38516C4.05539 9.63118 4.11775 9.89966 4.12107 10.1721M6.1623 8.74749L4.17107 10.1718M4.12107 18.7291C4.12107 18.729 4.12107 18.7289 4.12107 18.7288L4.17107 18.7293M4.12107 18.7291V18.7293H4.17107M4.12107 18.7291V10.1721M4.17107 18.7293V10.1718M4.12107 10.1721C4.12107 10.1722 4.12107 10.1723 4.12107 10.1724L4.17107 10.1718M4.12107 10.1721V10.1718H4.17107M3.0455 19.4525C3.14047 19.6817 3.2806 19.8895 3.45754 20.0634L3.0455 19.4525ZM35.1973 1.05002L35.1975 1.05001C35.6902 1.04862 36.1783 1.14464 36.6338 1.33256C37.0893 1.52047 37.5031 1.79656 37.8515 2.14497C38.1999 2.49337 38.476 2.90721 38.6639 3.36268C38.8519 3.81816 38.9479 4.30629 38.9465 4.799V4.79915V11.7642C38.9465 12.8964 38.1806 13.8852 37.0844 14.1682L37.0469 14.1779V14.2166V18.7293C37.0469 19.7508 36.2188 20.5789 35.1973 20.5789C34.1759 20.5789 33.3478 19.7509 33.3478 18.7293V2.26642C33.3478 1.59461 33.8924 1.05002 34.5642 1.05002L35.1973 1.05002ZM1.05516 5.75023L1.05517 5.75023V5.74893C1.05517 3.14668 2.74652 1.05002 4.80431 1.05002C6.86209 1.05002 8.55344 3.14668 8.55342 5.74893L8.55345 5.75024C8.57257 6.47643 8.43709 7.19838 8.156 7.86823C7.87518 8.53745 7.45542 9.1394 6.92453 9.63422C6.8433 9.69856 6.77702 9.7798 6.73029 9.87232C6.68325 9.96547 6.65717 10.0678 6.65389 10.1721L6.65387 10.1721V10.1737L6.65387 18.6584L6.65387 18.6591C6.66739 19.6365 5.93614 20.4643 4.96456 20.5715C4.91092 20.5764 4.85753 20.5788 4.80431 20.5788L4.80412 20.5788C4.55989 20.5798 4.31797 20.5315 4.09278 20.437C3.86759 20.3424 3.66374 20.2035 3.49338 20.0285L3.49259 20.0278C3.32044 19.8585 3.1841 19.6564 3.09169 19.4334C2.99929 19.2104 2.95271 18.9711 2.95474 18.7297V18.7293V10.1717H2.95476L2.95471 10.1701C2.95141 10.0658 2.92532 9.96338 2.8783 9.87013C2.83158 9.77751 2.76532 9.69614 2.6841 9.63164C2.15339 9.13721 1.73373 8.5357 1.4529 7.86691C1.17182 7.19751 1.03624 6.47601 1.05516 5.75023ZM29.5487 11.7642V11.7642C29.5427 6.49359 25.2715 2.22238 20.0009 2.21642H20.0008C14.7277 2.21642 10.453 6.49116 10.453 11.7642C10.453 17.0373 14.7277 21.3121 20.0008 21.3121C25.2739 21.3121 29.5487 17.0373 29.5487 11.7642ZM38.9965 11.7642V4.79915L34.5642 1.00002C33.8648 1.00002 33.2978 1.56699 33.2978 2.26642V18.7293C33.2978 19.7785 34.1483 20.6289 35.1973 20.6289C36.2464 20.6289 37.0969 19.7784 37.0969 18.7293V14.2166C38.2152 13.9279 38.9965 12.9192 38.9965 11.7642ZM20.0008 22.4785C14.0836 22.4785 9.28663 17.6816 9.2866 11.7643C9.29325 5.84973 14.0863 1.05668 20.0009 1.05002C25.9181 1.05003 30.7151 5.84697 30.7151 11.7642C30.7151 17.6815 25.9181 22.4785 20.0008 22.4785Z" fill="#B1B6B9" stroke="white" stroke-width="0.1"/>
<path d="M27.0161 11.7643V11.7643C27.0115 7.89186 23.8734 4.75378 20.001 4.74923H20.001C16.1266 4.74923 12.9859 7.89002 12.9859 11.7643C12.9859 15.6386 16.1266 18.7794 20.001 18.7794C23.8753 18.7794 27.0161 15.6386 27.0161 11.7643ZM20.001 19.9457C15.4825 19.9457 11.8195 16.2828 11.8195 11.7644C11.8247 7.24798 15.4846 3.58808 20.001 3.5829C24.5195 3.58291 28.1824 7.2459 28.1824 11.7643C28.1824 16.2828 24.5195 19.9457 20.001 19.9457Z" fill="#B1B6B9" stroke="white" stroke-width="0.1"/>
</svg>
