<svg width="15" height="11" viewBox="0 0 15 11" fill="none" xmlns="http://www.w3.org/2000/svg">
<mask id="path-1-outside-1_2_2164" maskUnits="userSpaceOnUse" x="-0.765625" y="-0.655762" width="16" height="12" fill="black">
<rect fill="white" x="-0.765625" y="-0.655762" width="16" height="12"/>
<path d="M14.5312 8.07861H14.2969V6.20361C14.2965 5.95507 14.1977 5.7168 14.0219 5.54106C13.8462 5.36532 13.6079 5.26644 13.3594 5.26611V1.28174C13.359 1.0332 13.2602 0.79493 13.0844 0.619185C12.9087 0.44344 12.6704 0.344564 12.4219 0.344238H2.57812C2.32958 0.344564 2.09132 0.44344 1.91557 0.619185C1.73983 0.79493 1.64095 1.0332 1.64062 1.28174V5.26611C1.39208 5.26644 1.15382 5.36532 0.978072 5.54106C0.802327 5.7168 0.703451 5.95507 0.703125 6.20361V8.07861H0.46875C0.40659 8.07861 0.346976 8.10331 0.303022 8.14726C0.259068 8.19121 0.234375 8.25083 0.234375 8.31299V9.25049C0.234375 9.31265 0.259068 9.37226 0.303022 9.41622C0.346976 9.46017 0.40659 9.48486 0.46875 9.48486H0.703125V10.4224C0.703125 10.4845 0.727818 10.5441 0.771772 10.5881C0.815726 10.632 0.87534 10.6567 0.9375 10.6567H1.64062C1.69479 10.6568 1.74729 10.638 1.78918 10.6037C1.83106 10.5693 1.85974 10.5215 1.87031 10.4684L2.06719 9.48486H12.9328L13.1297 10.4684C13.1403 10.5215 13.1689 10.5693 13.2108 10.6037C13.2527 10.638 13.3052 10.6568 13.3594 10.6567H14.0625C14.1247 10.6567 14.1843 10.632 14.2282 10.5881C14.2722 10.5441 14.2969 10.4845 14.2969 10.4224V9.48486H14.5312C14.5934 9.48486 14.653 9.46017 14.697 9.41622C14.7409 9.37226 14.7656 9.31265 14.7656 9.25049V8.31299C14.7656 8.25083 14.7409 8.19121 14.697 8.14726C14.653 8.10331 14.5934 8.07861 14.5312 8.07861ZM2.10938 1.28174C2.10954 1.15747 2.15898 1.03833 2.24685 0.950462C2.33472 0.862589 2.45385 0.813151 2.57812 0.812988H12.4219C12.5461 0.813151 12.6653 0.862589 12.7532 0.950462C12.841 1.03833 12.8905 1.15747 12.8906 1.28174V5.26611H12.4219V4.32861C12.4215 4.08007 12.3227 3.8418 12.1469 3.66606C11.9712 3.49032 11.7329 3.39144 11.4844 3.39111H8.67188C8.42333 3.39144 8.18507 3.49032 8.00932 3.66606C7.83358 3.8418 7.7347 4.08007 7.73438 4.32861V5.26611H7.26562V4.32861C7.2653 4.08007 7.16642 3.8418 6.99068 3.66606C6.81493 3.49032 6.57667 3.39144 6.32812 3.39111H3.51562C3.26708 3.39144 3.02882 3.49032 2.85307 3.66606C2.67733 3.8418 2.57845 4.08007 2.57812 4.32861V5.26611H2.10938V1.28174ZM11.9531 4.32861V5.26611H8.20312V4.32861C8.20329 4.20434 8.25273 4.08521 8.3406 3.99734C8.42847 3.90946 8.5476 3.86003 8.67188 3.85986H11.4844C11.6086 3.86003 11.7278 3.90946 11.8157 3.99734C11.9035 4.08521 11.953 4.20434 11.9531 4.32861ZM6.79688 4.32861V5.26611H3.04688V4.32861C3.04704 4.20434 3.09648 4.08521 3.18435 3.99734C3.27222 3.90946 3.39135 3.86003 3.51562 3.85986H6.32812C6.4524 3.86003 6.57153 3.90946 6.6594 3.99734C6.74727 4.08521 6.79671 4.20434 6.79688 4.32861ZM1.17188 6.20361C1.17204 6.07934 1.22148 5.96021 1.30935 5.87234C1.39722 5.78446 1.51635 5.73503 1.64062 5.73486H13.3594C13.4836 5.73503 13.6028 5.78446 13.6907 5.87234C13.7785 5.96021 13.828 6.07934 13.8281 6.20361V8.07861H1.17188V6.20361ZM1.44844 10.188H1.17188V9.48486H1.58906L1.44844 10.188ZM13.8281 10.188H13.5516L13.4109 9.48486H13.8281V10.188ZM14.2969 9.01611H0.703125V8.54736H14.2969V9.01611Z"/>
</mask>
<path d="M14.5312 8.07861H14.2969V6.20361C14.2965 5.95507 14.1977 5.7168 14.0219 5.54106C13.8462 5.36532 13.6079 5.26644 13.3594 5.26611V1.28174C13.359 1.0332 13.2602 0.79493 13.0844 0.619185C12.9087 0.44344 12.6704 0.344564 12.4219 0.344238H2.57812C2.32958 0.344564 2.09132 0.44344 1.91557 0.619185C1.73983 0.79493 1.64095 1.0332 1.64062 1.28174V5.26611C1.39208 5.26644 1.15382 5.36532 0.978072 5.54106C0.802327 5.7168 0.703451 5.95507 0.703125 6.20361V8.07861H0.46875C0.40659 8.07861 0.346976 8.10331 0.303022 8.14726C0.259068 8.19121 0.234375 8.25083 0.234375 8.31299V9.25049C0.234375 9.31265 0.259068 9.37226 0.303022 9.41622C0.346976 9.46017 0.40659 9.48486 0.46875 9.48486H0.703125V10.4224C0.703125 10.4845 0.727818 10.5441 0.771772 10.5881C0.815726 10.632 0.87534 10.6567 0.9375 10.6567H1.64062C1.69479 10.6568 1.74729 10.638 1.78918 10.6037C1.83106 10.5693 1.85974 10.5215 1.87031 10.4684L2.06719 9.48486H12.9328L13.1297 10.4684C13.1403 10.5215 13.1689 10.5693 13.2108 10.6037C13.2527 10.638 13.3052 10.6568 13.3594 10.6567H14.0625C14.1247 10.6567 14.1843 10.632 14.2282 10.5881C14.2722 10.5441 14.2969 10.4845 14.2969 10.4224V9.48486H14.5312C14.5934 9.48486 14.653 9.46017 14.697 9.41622C14.7409 9.37226 14.7656 9.31265 14.7656 9.25049V8.31299C14.7656 8.25083 14.7409 8.19121 14.697 8.14726C14.653 8.10331 14.5934 8.07861 14.5312 8.07861ZM2.10938 1.28174C2.10954 1.15747 2.15898 1.03833 2.24685 0.950462C2.33472 0.862589 2.45385 0.813151 2.57812 0.812988H12.4219C12.5461 0.813151 12.6653 0.862589 12.7532 0.950462C12.841 1.03833 12.8905 1.15747 12.8906 1.28174V5.26611H12.4219V4.32861C12.4215 4.08007 12.3227 3.8418 12.1469 3.66606C11.9712 3.49032 11.7329 3.39144 11.4844 3.39111H8.67188C8.42333 3.39144 8.18507 3.49032 8.00932 3.66606C7.83358 3.8418 7.7347 4.08007 7.73438 4.32861V5.26611H7.26562V4.32861C7.2653 4.08007 7.16642 3.8418 6.99068 3.66606C6.81493 3.49032 6.57667 3.39144 6.32812 3.39111H3.51562C3.26708 3.39144 3.02882 3.49032 2.85307 3.66606C2.67733 3.8418 2.57845 4.08007 2.57812 4.32861V5.26611H2.10938V1.28174ZM11.9531 4.32861V5.26611H8.20312V4.32861C8.20329 4.20434 8.25273 4.08521 8.3406 3.99734C8.42847 3.90946 8.5476 3.86003 8.67188 3.85986H11.4844C11.6086 3.86003 11.7278 3.90946 11.8157 3.99734C11.9035 4.08521 11.953 4.20434 11.9531 4.32861ZM6.79688 4.32861V5.26611H3.04688V4.32861C3.04704 4.20434 3.09648 4.08521 3.18435 3.99734C3.27222 3.90946 3.39135 3.86003 3.51562 3.85986H6.32812C6.4524 3.86003 6.57153 3.90946 6.6594 3.99734C6.74727 4.08521 6.79671 4.20434 6.79688 4.32861ZM1.17188 6.20361C1.17204 6.07934 1.22148 5.96021 1.30935 5.87234C1.39722 5.78446 1.51635 5.73503 1.64062 5.73486H13.3594C13.4836 5.73503 13.6028 5.78446 13.6907 5.87234C13.7785 5.96021 13.828 6.07934 13.8281 6.20361V8.07861H1.17188V6.20361ZM1.44844 10.188H1.17188V9.48486H1.58906L1.44844 10.188ZM13.8281 10.188H13.5516L13.4109 9.48486H13.8281V10.188ZM14.2969 9.01611H0.703125V8.54736H14.2969V9.01611Z" fill="#1B88D7"/>
<path d="M14.5312 8.07861H14.2969V6.20361C14.2965 5.95507 14.1977 5.7168 14.0219 5.54106C13.8462 5.36532 13.6079 5.26644 13.3594 5.26611V1.28174C13.359 1.0332 13.2602 0.79493 13.0844 0.619185C12.9087 0.44344 12.6704 0.344564 12.4219 0.344238H2.57812C2.32958 0.344564 2.09132 0.44344 1.91557 0.619185C1.73983 0.79493 1.64095 1.0332 1.64062 1.28174V5.26611C1.39208 5.26644 1.15382 5.36532 0.978072 5.54106C0.802327 5.7168 0.703451 5.95507 0.703125 6.20361V8.07861H0.46875C0.40659 8.07861 0.346976 8.10331 0.303022 8.14726C0.259068 8.19121 0.234375 8.25083 0.234375 8.31299V9.25049C0.234375 9.31265 0.259068 9.37226 0.303022 9.41622C0.346976 9.46017 0.40659 9.48486 0.46875 9.48486H0.703125V10.4224C0.703125 10.4845 0.727818 10.5441 0.771772 10.5881C0.815726 10.632 0.87534 10.6567 0.9375 10.6567H1.64062C1.69479 10.6568 1.74729 10.638 1.78918 10.6037C1.83106 10.5693 1.85974 10.5215 1.87031 10.4684L2.06719 9.48486H12.9328L13.1297 10.4684C13.1403 10.5215 13.1689 10.5693 13.2108 10.6037C13.2527 10.638 13.3052 10.6568 13.3594 10.6567H14.0625C14.1247 10.6567 14.1843 10.632 14.2282 10.5881C14.2722 10.5441 14.2969 10.4845 14.2969 10.4224V9.48486H14.5312C14.5934 9.48486 14.653 9.46017 14.697 9.41622C14.7409 9.37226 14.7656 9.31265 14.7656 9.25049V8.31299C14.7656 8.25083 14.7409 8.19121 14.697 8.14726C14.653 8.10331 14.5934 8.07861 14.5312 8.07861ZM2.10938 1.28174C2.10954 1.15747 2.15898 1.03833 2.24685 0.950462C2.33472 0.862589 2.45385 0.813151 2.57812 0.812988H12.4219C12.5461 0.813151 12.6653 0.862589 12.7532 0.950462C12.841 1.03833 12.8905 1.15747 12.8906 1.28174V5.26611H12.4219V4.32861C12.4215 4.08007 12.3227 3.8418 12.1469 3.66606C11.9712 3.49032 11.7329 3.39144 11.4844 3.39111H8.67188C8.42333 3.39144 8.18507 3.49032 8.00932 3.66606C7.83358 3.8418 7.7347 4.08007 7.73438 4.32861V5.26611H7.26562V4.32861C7.2653 4.08007 7.16642 3.8418 6.99068 3.66606C6.81493 3.49032 6.57667 3.39144 6.32812 3.39111H3.51562C3.26708 3.39144 3.02882 3.49032 2.85307 3.66606C2.67733 3.8418 2.57845 4.08007 2.57812 4.32861V5.26611H2.10938V1.28174ZM11.9531 4.32861V5.26611H8.20312V4.32861C8.20329 4.20434 8.25273 4.08521 8.3406 3.99734C8.42847 3.90946 8.5476 3.86003 8.67188 3.85986H11.4844C11.6086 3.86003 11.7278 3.90946 11.8157 3.99734C11.9035 4.08521 11.953 4.20434 11.9531 4.32861ZM6.79688 4.32861V5.26611H3.04688V4.32861C3.04704 4.20434 3.09648 4.08521 3.18435 3.99734C3.27222 3.90946 3.39135 3.86003 3.51562 3.85986H6.32812C6.4524 3.86003 6.57153 3.90946 6.6594 3.99734C6.74727 4.08521 6.79671 4.20434 6.79688 4.32861ZM1.17188 6.20361C1.17204 6.07934 1.22148 5.96021 1.30935 5.87234C1.39722 5.78446 1.51635 5.73503 1.64062 5.73486H13.3594C13.4836 5.73503 13.6028 5.78446 13.6907 5.87234C13.7785 5.96021 13.828 6.07934 13.8281 6.20361V8.07861H1.17188V6.20361ZM1.44844 10.188H1.17188V9.48486H1.58906L1.44844 10.188ZM13.8281 10.188H13.5516L13.4109 9.48486H13.8281V10.188ZM14.2969 9.01611H0.703125V8.54736H14.2969V9.01611Z" stroke="#1B88D7" stroke-width="0.06" mask="url(#path-1-outside-1_2_2164)"/>
</svg>
