<svg width="40" height="40" viewBox="0 0 40 40" fill="none" xmlns="http://www.w3.org/2000/svg">
<mask id="path-1-inside-1_2_261" fill="white">
<path d="M39.375 36.875H35.3125V31.8125C38 30.75 40 27.6875 40 24.125C40 22.3125 39.5 20.5625 38.5625 19.125C38.125 18.5 38.1875 17.875 38.1875 17.8125C38.1875 14.5625 36 11.9375 33.25 11.9375L19.9375 2.375C18.875 1.625 17.5625 1.625 16.5 2.375L11.1875 6.1875V2.4375C11.1875 2.0625 10.875 1.8125 10.5625 1.8125H4.625C4.25 1.8125 4 2.125 4 2.4375V11.375L0.25 14.0625C0.125 14.1875 0 14.4375 0 14.625V18.8125C0 19.0625 0.125 19.25 0.375 19.375C0.5625 19.5 0.875 19.4375 1.0625 19.3125L3 17.9375V36.875H0.625C0.25 36.875 0 37.1875 0 37.5C0 37.8125 0.3125 38.125 0.625 38.125H39.375C39.75 38.125 40 37.8125 40 37.5C40 37.1875 39.6875 36.875 39.375 36.875ZM34 36.875H32.375V32.125C33 32.1875 33.4375 32.1875 34 32.125V36.875ZM36.875 17.8125V17.875C36.875 19.9375 38.6875 20.4375 38.6875 24.125C38.6875 27.625 36.5625 30.5 33.8125 30.875V26.875L35.8125 24.4375C36.0625 24.1875 36 23.75 35.6875 23.5C35.375 23.25 35 23.3125 34.75 23.625L33.75 24.8125V22.3125L35.5625 19.75C35.75 19.4375 35.6875 19.0625 35.375 18.875C35.0625 18.6875 34.6875 18.75 34.5 19.0625L33.75 20.125V18.125C33.75 17.75 33.4375 17.5 33.125 17.5C32.8125 17.5 32.5 17.8125 32.5 18.125V22.9375L30.875 21.0625C30.625 20.8125 30.25 20.75 29.9375 21C29.6875 21.25 29.625 21.625 29.875 21.9375L32.4375 25V27.1875L31.5 26.125C31.25 25.875 30.875 25.8125 30.5625 26.0625C30.3125 26.3125 30.25 26.6875 30.5 27L32.375 29.125V31C29.625 30.625 27.5 27.75 27.5 24.25C27.5 22.6875 27.9375 21.1875 28.75 19.9375C29.375 18.9375 29.3125 18 29.3125 17.9375C29.3125 15.4375 30.9375 13.375 33 13.375C35.25 13.25 36.875 15.3125 36.875 17.8125ZM5.3125 3.125H9.9375V7.1875L5.3125 10.5V3.125ZM1.3125 14.9375L17.25 3.4375C17.8125 3 18.625 3 19.1875 3.4375L31.5 12.3125C30.8125 12.625 30.25 13.0625 29.75 13.625L18.625 5.5625C18.375 5.375 18.125 5.375 17.875 5.5625L1.3125 17.5V14.9375ZM4.25 17L18.1875 6.9375L28.9375 14.6875C27.6875 16.9375 28.5625 18 27.8125 19.125C26.875 20.5625 26.375 22.3125 26.375 24.125C26.375 27.6875 28.375 30.75 31.0625 31.8125V36.875H23.1875V26.125C23.1875 25.75 22.875 25.5 22.5625 25.5H13.9375C13.5625 25.5 13.3125 25.8125 13.3125 26.125V36.875H4.25V17ZM14.625 36.875V26.75H21.875V36.875H14.625ZM18.25 20.625C20.125 20.625 21.6875 19.0625 21.6875 17.1875C21.6875 15.3125 20.125 13.75 18.25 13.75C16.375 13.75 14.8125 15.3125 14.8125 17.1875C14.8125 19.0625 16.3125 20.625 18.25 20.625ZM18.25 15.0625C19.4375 15.0625 20.375 16 20.375 17.1875C20.375 18.375 19.4375 19.3125 18.25 19.3125C17.0625 19.3125 16.125 18.375 16.125 17.1875C16.0625 16 17.0625 15.0625 18.25 15.0625Z"/>
</mask>
<path d="M39.375 36.875H35.3125V31.8125C38 30.75 40 27.6875 40 24.125C40 22.3125 39.5 20.5625 38.5625 19.125C38.125 18.5 38.1875 17.875 38.1875 17.8125C38.1875 14.5625 36 11.9375 33.25 11.9375L19.9375 2.375C18.875 1.625 17.5625 1.625 16.5 2.375L11.1875 6.1875V2.4375C11.1875 2.0625 10.875 1.8125 10.5625 1.8125H4.625C4.25 1.8125 4 2.125 4 2.4375V11.375L0.25 14.0625C0.125 14.1875 0 14.4375 0 14.625V18.8125C0 19.0625 0.125 19.25 0.375 19.375C0.5625 19.5 0.875 19.4375 1.0625 19.3125L3 17.9375V36.875H0.625C0.25 36.875 0 37.1875 0 37.5C0 37.8125 0.3125 38.125 0.625 38.125H39.375C39.75 38.125 40 37.8125 40 37.5C40 37.1875 39.6875 36.875 39.375 36.875ZM34 36.875H32.375V32.125C33 32.1875 33.4375 32.1875 34 32.125V36.875ZM36.875 17.8125V17.875C36.875 19.9375 38.6875 20.4375 38.6875 24.125C38.6875 27.625 36.5625 30.5 33.8125 30.875V26.875L35.8125 24.4375C36.0625 24.1875 36 23.75 35.6875 23.5C35.375 23.25 35 23.3125 34.75 23.625L33.75 24.8125V22.3125L35.5625 19.75C35.75 19.4375 35.6875 19.0625 35.375 18.875C35.0625 18.6875 34.6875 18.75 34.5 19.0625L33.75 20.125V18.125C33.75 17.75 33.4375 17.5 33.125 17.5C32.8125 17.5 32.5 17.8125 32.5 18.125V22.9375L30.875 21.0625C30.625 20.8125 30.25 20.75 29.9375 21C29.6875 21.25 29.625 21.625 29.875 21.9375L32.4375 25V27.1875L31.5 26.125C31.25 25.875 30.875 25.8125 30.5625 26.0625C30.3125 26.3125 30.25 26.6875 30.5 27L32.375 29.125V31C29.625 30.625 27.5 27.75 27.5 24.25C27.5 22.6875 27.9375 21.1875 28.75 19.9375C29.375 18.9375 29.3125 18 29.3125 17.9375C29.3125 15.4375 30.9375 13.375 33 13.375C35.25 13.25 36.875 15.3125 36.875 17.8125ZM5.3125 3.125H9.9375V7.1875L5.3125 10.5V3.125ZM1.3125 14.9375L17.25 3.4375C17.8125 3 18.625 3 19.1875 3.4375L31.5 12.3125C30.8125 12.625 30.25 13.0625 29.75 13.625L18.625 5.5625C18.375 5.375 18.125 5.375 17.875 5.5625L1.3125 17.5V14.9375ZM4.25 17L18.1875 6.9375L28.9375 14.6875C27.6875 16.9375 28.5625 18 27.8125 19.125C26.875 20.5625 26.375 22.3125 26.375 24.125C26.375 27.6875 28.375 30.75 31.0625 31.8125V36.875H23.1875V26.125C23.1875 25.75 22.875 25.5 22.5625 25.5H13.9375C13.5625 25.5 13.3125 25.8125 13.3125 26.125V36.875H4.25V17ZM14.625 36.875V26.75H21.875V36.875H14.625ZM18.25 20.625C20.125 20.625 21.6875 19.0625 21.6875 17.1875C21.6875 15.3125 20.125 13.75 18.25 13.75C16.375 13.75 14.8125 15.3125 14.8125 17.1875C14.8125 19.0625 16.3125 20.625 18.25 20.625ZM18.25 15.0625C19.4375 15.0625 20.375 16 20.375 17.1875C20.375 18.375 19.4375 19.3125 18.25 19.3125C17.0625 19.3125 16.125 18.375 16.125 17.1875C16.0625 16 17.0625 15.0625 18.25 15.0625Z" fill="#B1B6B9" stroke="white" stroke-width="0.3" mask="url(#path-1-inside-1_2_261)"/>
</svg>
