<svg width="19" height="20" viewBox="0 0 19 20" fill="none" xmlns="http://www.w3.org/2000/svg">
<path d="M5.9 12.9298C5.9 12.9298 7.25 14.7298 9.5 14.7298C11.75 14.7298 13.1 12.9298 13.1 12.9298M18.5 10.0006C18.5 14.9711 14.4706 19.0006 9.5 19.0006C4.52944 19.0006 0.5 14.9711 0.5 10.0006C0.5 5.03 4.52944 1.00056 9.5 1.00056C14.4706 1.00056 18.5 5.03 18.5 10.0006Z" stroke="#1B88D7" stroke-width="1.2" stroke-linecap="round" stroke-linejoin="round"/>
<path d="M4.48926 7.23885C4.48926 7.23885 5.03234 7.96295 5.93748 7.96295C6.84261 7.96295 7.38569 7.23885 7.38569 7.23885" stroke="#1B88D7" stroke-width="1.2" stroke-linecap="round" stroke-linejoin="round"/>
<path d="M11.8076 7.23885C11.8076 7.23885 12.3507 7.96295 13.2558 7.96295C14.161 7.96295 14.7041 7.23885 14.7041 7.23885" stroke="#1B88D7" stroke-width="1.2" stroke-linecap="round" stroke-linejoin="round"/>
</svg>
