<svg width="19" height="15" viewBox="0 0 19 15" fill="none" xmlns="http://www.w3.org/2000/svg">
<path d="M18.0332 0.67002H0.966773C0.419406 0.67002 -0.0257813 1.11516 -0.0257813 1.66254V5.71095C-0.0257813 6.25836 0.419403 6.7035 0.966773 6.7035H1.75227L2.66154 9.73991C2.89338 10.5142 3.59299 11.0349 4.40121 11.0349H14.5988C15.4071 11.0349 16.1067 10.5142 16.3385 9.73991L17.2478 6.7035H18.0333C18.5806 6.7035 19.0258 6.25832 19.0258 5.71095V1.66254C19.0258 1.11516 18.5806 0.67002 18.0333 0.67002H18.0332ZM15.5781 9.51221C15.4474 9.9486 15.0543 10.2412 14.5988 10.2412H4.40117C3.94568 10.2412 3.55259 9.94856 3.42191 9.51221L2.58081 6.7035H16.4191L15.5781 9.5122C15.5781 9.5122 15.5781 9.51221 15.5781 9.51221ZM18.232 5.71095C18.232 5.82048 18.1428 5.90975 18.0332 5.90975H0.966773C0.857244 5.90975 0.767969 5.82046 0.767969 5.71095V1.66254C0.767969 1.55302 0.85722 1.46377 0.966773 1.46377H18.0332C18.1428 1.46377 18.232 1.55305 18.232 1.66254V5.71095Z" fill="#1B88D7" stroke="#1B88D7" stroke-width="0.2"/>
<mask id="path-2-outside-1_2_609" maskUnits="userSpaceOnUse" x="3.86621" y="2.38986" width="11" height="13" fill="black">
<rect fill="white" x="3.86621" y="2.38986" width="11" height="13"/>
<path d="M13.6566 9.45765C13.7349 9.46606 13.8133 9.44303 13.8746 9.39362C13.9359 9.34422 13.9751 9.2725 13.9835 9.19421L14.132 7.81397C14.1399 7.73592 14.1167 7.6579 14.0673 7.59696C14.0179 7.53601 13.9464 7.49709 13.8684 7.4887C13.7904 7.48031 13.7122 7.50313 13.651 7.55219C13.5898 7.60124 13.5505 7.67252 13.5416 7.75047L13.3932 9.13072C13.3848 9.209 13.4078 9.28743 13.4572 9.34874C13.5066 9.41005 13.5783 9.44923 13.6566 9.45765ZM11.5782 9.45891C11.6171 9.46101 11.6561 9.45541 11.6928 9.44245C11.7296 9.42949 11.7635 9.40941 11.7925 9.38336C11.8215 9.35731 11.8451 9.3258 11.8619 9.29064C11.8787 9.25547 11.8885 9.21734 11.8906 9.17841L11.9648 7.79816C11.969 7.71954 11.9418 7.64247 11.8892 7.58388C11.8366 7.5253 11.7629 7.49001 11.6843 7.48577C11.6454 7.48365 11.6064 7.48922 11.5696 7.50218C11.5328 7.51513 11.499 7.53521 11.47 7.56126C11.4409 7.58731 11.4174 7.61883 11.4005 7.65401C11.3837 7.68919 11.374 7.72734 11.3719 7.76628L11.2977 9.14653C11.2935 9.22514 11.3207 9.30222 11.3733 9.36081C11.4259 9.41939 11.4996 9.45468 11.5782 9.45891ZM9.49995 9.45936C9.57868 9.45936 9.65419 9.42808 9.70987 9.37241C9.76554 9.31673 9.79682 9.24122 9.79682 9.16248V7.7822C9.79682 7.70347 9.76554 7.62795 9.70987 7.57228C9.65419 7.5166 9.57868 7.48533 9.49995 7.48533C9.42121 7.48533 9.3457 7.5166 9.29002 7.57228C9.23435 7.62795 9.20307 7.70347 9.20307 7.7822V9.16248C9.20307 9.24122 9.23435 9.31673 9.29002 9.37241C9.3457 9.42808 9.42121 9.45936 9.49995 9.45936ZM7.10932 9.17844C7.11102 9.21765 7.12048 9.25614 7.13715 9.29167C7.15382 9.3272 7.17737 9.35907 7.20643 9.38544C7.2355 9.41181 7.26951 9.43216 7.30649 9.4453C7.34347 9.45845 7.38269 9.46413 7.42188 9.46202C7.46107 9.45991 7.49945 9.45005 7.5348 9.43301C7.57016 9.41598 7.60178 9.3921 7.62785 9.36276C7.65392 9.33342 7.67391 9.2992 7.68667 9.26208C7.69943 9.22497 7.7047 9.18569 7.70218 9.14653L7.62796 7.76628C7.61917 7.60256 7.47964 7.47657 7.31558 7.48577C7.23696 7.49001 7.16325 7.5253 7.11065 7.58388C7.05805 7.64247 7.03088 7.71954 7.0351 7.79816L7.10932 9.17844ZM5.01639 9.19421C5.02008 9.23335 5.03151 9.27136 5.05002 9.30605C5.06852 9.34073 5.09372 9.3714 5.12417 9.39626C5.15462 9.42113 5.1897 9.4397 5.22738 9.4509C5.26507 9.46209 5.3046 9.4657 5.34368 9.4615C5.38277 9.45729 5.42063 9.44537 5.45507 9.42642C5.48951 9.40747 5.51985 9.38187 5.54432 9.3511C5.56878 9.32033 5.5869 9.28501 5.5976 9.24718C5.60831 9.20936 5.6114 9.16979 5.60669 9.13076L5.45825 7.75047C5.4541 7.7117 5.44235 7.67413 5.42366 7.6399C5.40498 7.60568 5.37974 7.57547 5.34938 7.551C5.31902 7.52654 5.28413 7.5083 5.24671 7.49732C5.2093 7.48634 5.17009 7.48285 5.13132 7.48703C5.05303 7.49546 4.98131 7.53464 4.93191 7.59595C4.88251 7.65726 4.85949 7.73568 4.86792 7.81397L5.01639 9.19421ZM12.9752 12.1401C12.9935 12.1057 13.0048 12.068 13.0085 12.0292C13.0122 11.9904 13.0082 11.9512 12.9968 11.9139C12.9854 11.8767 12.9667 11.842 12.9419 11.812C12.9171 11.7819 12.8866 11.757 12.8521 11.7387C12.8177 11.7205 12.78 11.7092 12.7412 11.7055C12.7024 11.7018 12.6632 11.7057 12.6259 11.7172C12.5887 11.7286 12.554 11.7473 12.5239 11.7721C12.4939 11.7969 12.469 11.8274 12.4507 11.8619C12.2362 12.2661 12.3269 12.6632 12.4068 13.0134C12.4747 13.3108 12.5333 13.5676 12.4351 13.8286C12.4083 13.9021 12.4115 13.9833 12.4442 14.0544C12.4768 14.1255 12.5362 14.1808 12.6095 14.2084C12.6827 14.2359 12.7639 14.2334 12.8353 14.2014C12.9067 14.1694 12.9626 14.1105 12.9909 14.0375C13.1518 13.6095 13.0636 13.2226 12.9857 12.8814C12.9104 12.5515 12.8696 12.3392 12.9752 12.1401V12.1401ZM9.77604 12.1401C9.79475 12.1057 9.80645 12.0678 9.81046 12.0288C9.81446 11.9898 9.81069 11.9504 9.79937 11.9128C9.78805 11.8753 9.7694 11.8403 9.7445 11.81C9.71959 11.7797 9.68893 11.7546 9.65428 11.7363C9.61963 11.7179 9.58168 11.7065 9.54263 11.7029C9.50357 11.6993 9.46418 11.7034 9.42674 11.7151C9.38929 11.7268 9.35453 11.7458 9.32447 11.7709C9.2944 11.7961 9.26963 11.827 9.25157 11.8619C9.03708 12.2661 9.12766 12.6632 9.20763 13.0134C9.27547 13.3108 9.33407 13.5676 9.23591 13.8286C9.20821 13.9023 9.21091 13.984 9.24344 14.0557C9.27596 14.1274 9.33564 14.1833 9.40934 14.211C9.48304 14.2387 9.56473 14.236 9.63644 14.2034C9.70815 14.1709 9.76399 14.1112 9.7917 14.0375C9.95264 13.6095 9.86436 13.2226 9.7865 12.8814C9.71117 12.5515 9.67043 12.3392 9.77604 12.1401V12.1401ZM6.57688 12.1401C6.59515 12.1057 6.60646 12.068 6.61016 12.0292C6.61386 11.9904 6.60989 11.9512 6.59845 11.9139C6.58702 11.8767 6.56836 11.842 6.54353 11.812C6.51871 11.7819 6.48821 11.757 6.45377 11.7387C6.41933 11.7205 6.38163 11.7092 6.34282 11.7055C6.30401 11.7018 6.26485 11.7057 6.22757 11.7172C6.1903 11.7286 6.15564 11.7473 6.12558 11.7721C6.09552 11.7969 6.07065 11.8274 6.05237 11.8619C5.83788 12.2661 5.9285 12.6632 6.00844 13.0134C6.07631 13.3108 6.1349 13.5676 6.03675 13.8286C6.0099 13.9021 6.01316 13.9833 6.04582 14.0544C6.07847 14.1255 6.13789 14.1808 6.21114 14.2084C6.28439 14.2359 6.36554 14.2334 6.43696 14.2014C6.50838 14.1694 6.56428 14.1105 6.5925 14.0375C6.75348 13.6095 6.6652 13.2226 6.5873 12.8814C6.51201 12.5515 6.47126 12.3392 6.57688 12.1401V12.1401ZM10.0244 3.38986H8.97548C8.89674 3.38986 8.82123 3.42114 8.76556 3.47682C8.70988 3.53249 8.6786 3.608 8.6786 3.68674C8.6786 3.76547 8.70988 3.84098 8.76556 3.89666C8.82123 3.95233 8.89674 3.98361 8.97548 3.98361H10.0244C10.1031 3.98361 10.1787 3.95233 10.2343 3.89666C10.29 3.84098 10.3213 3.76547 10.3213 3.68674C10.3213 3.608 10.29 3.53249 10.2343 3.47682C10.1787 3.42114 10.1031 3.38986 10.0244 3.38986Z"/>
</mask>
<path d="M13.6566 9.45765C13.7349 9.46606 13.8133 9.44303 13.8746 9.39362C13.9359 9.34422 13.9751 9.2725 13.9835 9.19421L14.132 7.81397C14.1399 7.73592 14.1167 7.6579 14.0673 7.59696C14.0179 7.53601 13.9464 7.49709 13.8684 7.4887C13.7904 7.48031 13.7122 7.50313 13.651 7.55219C13.5898 7.60124 13.5505 7.67252 13.5416 7.75047L13.3932 9.13072C13.3848 9.209 13.4078 9.28743 13.4572 9.34874C13.5066 9.41005 13.5783 9.44923 13.6566 9.45765ZM11.5782 9.45891C11.6171 9.46101 11.6561 9.45541 11.6928 9.44245C11.7296 9.42949 11.7635 9.40941 11.7925 9.38336C11.8215 9.35731 11.8451 9.3258 11.8619 9.29064C11.8787 9.25547 11.8885 9.21734 11.8906 9.17841L11.9648 7.79816C11.969 7.71954 11.9418 7.64247 11.8892 7.58388C11.8366 7.5253 11.7629 7.49001 11.6843 7.48577C11.6454 7.48365 11.6064 7.48922 11.5696 7.50218C11.5328 7.51513 11.499 7.53521 11.47 7.56126C11.4409 7.58731 11.4174 7.61883 11.4005 7.65401C11.3837 7.68919 11.374 7.72734 11.3719 7.76628L11.2977 9.14653C11.2935 9.22514 11.3207 9.30222 11.3733 9.36081C11.4259 9.41939 11.4996 9.45468 11.5782 9.45891ZM9.49995 9.45936C9.57868 9.45936 9.65419 9.42808 9.70987 9.37241C9.76554 9.31673 9.79682 9.24122 9.79682 9.16248V7.7822C9.79682 7.70347 9.76554 7.62795 9.70987 7.57228C9.65419 7.5166 9.57868 7.48533 9.49995 7.48533C9.42121 7.48533 9.3457 7.5166 9.29002 7.57228C9.23435 7.62795 9.20307 7.70347 9.20307 7.7822V9.16248C9.20307 9.24122 9.23435 9.31673 9.29002 9.37241C9.3457 9.42808 9.42121 9.45936 9.49995 9.45936ZM7.10932 9.17844C7.11102 9.21765 7.12048 9.25614 7.13715 9.29167C7.15382 9.3272 7.17737 9.35907 7.20643 9.38544C7.2355 9.41181 7.26951 9.43216 7.30649 9.4453C7.34347 9.45845 7.38269 9.46413 7.42188 9.46202C7.46107 9.45991 7.49945 9.45005 7.5348 9.43301C7.57016 9.41598 7.60178 9.3921 7.62785 9.36276C7.65392 9.33342 7.67391 9.2992 7.68667 9.26208C7.69943 9.22497 7.7047 9.18569 7.70218 9.14653L7.62796 7.76628C7.61917 7.60256 7.47964 7.47657 7.31558 7.48577C7.23696 7.49001 7.16325 7.5253 7.11065 7.58388C7.05805 7.64247 7.03088 7.71954 7.0351 7.79816L7.10932 9.17844ZM5.01639 9.19421C5.02008 9.23335 5.03151 9.27136 5.05002 9.30605C5.06852 9.34073 5.09372 9.3714 5.12417 9.39626C5.15462 9.42113 5.1897 9.4397 5.22738 9.4509C5.26507 9.46209 5.3046 9.4657 5.34368 9.4615C5.38277 9.45729 5.42063 9.44537 5.45507 9.42642C5.48951 9.40747 5.51985 9.38187 5.54432 9.3511C5.56878 9.32033 5.5869 9.28501 5.5976 9.24718C5.60831 9.20936 5.6114 9.16979 5.60669 9.13076L5.45825 7.75047C5.4541 7.7117 5.44235 7.67413 5.42366 7.6399C5.40498 7.60568 5.37974 7.57547 5.34938 7.551C5.31902 7.52654 5.28413 7.5083 5.24671 7.49732C5.2093 7.48634 5.17009 7.48285 5.13132 7.48703C5.05303 7.49546 4.98131 7.53464 4.93191 7.59595C4.88251 7.65726 4.85949 7.73568 4.86792 7.81397L5.01639 9.19421ZM12.9752 12.1401C12.9935 12.1057 13.0048 12.068 13.0085 12.0292C13.0122 11.9904 13.0082 11.9512 12.9968 11.9139C12.9854 11.8767 12.9667 11.842 12.9419 11.812C12.9171 11.7819 12.8866 11.757 12.8521 11.7387C12.8177 11.7205 12.78 11.7092 12.7412 11.7055C12.7024 11.7018 12.6632 11.7057 12.6259 11.7172C12.5887 11.7286 12.554 11.7473 12.5239 11.7721C12.4939 11.7969 12.469 11.8274 12.4507 11.8619C12.2362 12.2661 12.3269 12.6632 12.4068 13.0134C12.4747 13.3108 12.5333 13.5676 12.4351 13.8286C12.4083 13.9021 12.4115 13.9833 12.4442 14.0544C12.4768 14.1255 12.5362 14.1808 12.6095 14.2084C12.6827 14.2359 12.7639 14.2334 12.8353 14.2014C12.9067 14.1694 12.9626 14.1105 12.9909 14.0375C13.1518 13.6095 13.0636 13.2226 12.9857 12.8814C12.9104 12.5515 12.8696 12.3392 12.9752 12.1401V12.1401ZM9.77604 12.1401C9.79475 12.1057 9.80645 12.0678 9.81046 12.0288C9.81446 11.9898 9.81069 11.9504 9.79937 11.9128C9.78805 11.8753 9.7694 11.8403 9.7445 11.81C9.71959 11.7797 9.68893 11.7546 9.65428 11.7363C9.61963 11.7179 9.58168 11.7065 9.54263 11.7029C9.50357 11.6993 9.46418 11.7034 9.42674 11.7151C9.38929 11.7268 9.35453 11.7458 9.32447 11.7709C9.2944 11.7961 9.26963 11.827 9.25157 11.8619C9.03708 12.2661 9.12766 12.6632 9.20763 13.0134C9.27547 13.3108 9.33407 13.5676 9.23591 13.8286C9.20821 13.9023 9.21091 13.984 9.24344 14.0557C9.27596 14.1274 9.33564 14.1833 9.40934 14.211C9.48304 14.2387 9.56473 14.236 9.63644 14.2034C9.70815 14.1709 9.76399 14.1112 9.7917 14.0375C9.95264 13.6095 9.86436 13.2226 9.7865 12.8814C9.71117 12.5515 9.67043 12.3392 9.77604 12.1401V12.1401ZM6.57688 12.1401C6.59515 12.1057 6.60646 12.068 6.61016 12.0292C6.61386 11.9904 6.60989 11.9512 6.59845 11.9139C6.58702 11.8767 6.56836 11.842 6.54353 11.812C6.51871 11.7819 6.48821 11.757 6.45377 11.7387C6.41933 11.7205 6.38163 11.7092 6.34282 11.7055C6.30401 11.7018 6.26485 11.7057 6.22757 11.7172C6.1903 11.7286 6.15564 11.7473 6.12558 11.7721C6.09552 11.7969 6.07065 11.8274 6.05237 11.8619C5.83788 12.2661 5.9285 12.6632 6.00844 13.0134C6.07631 13.3108 6.1349 13.5676 6.03675 13.8286C6.0099 13.9021 6.01316 13.9833 6.04582 14.0544C6.07847 14.1255 6.13789 14.1808 6.21114 14.2084C6.28439 14.2359 6.36554 14.2334 6.43696 14.2014C6.50838 14.1694 6.56428 14.1105 6.5925 14.0375C6.75348 13.6095 6.6652 13.2226 6.5873 12.8814C6.51201 12.5515 6.47126 12.3392 6.57688 12.1401V12.1401ZM10.0244 3.38986H8.97548C8.89674 3.38986 8.82123 3.42114 8.76556 3.47682C8.70988 3.53249 8.6786 3.608 8.6786 3.68674C8.6786 3.76547 8.70988 3.84098 8.76556 3.89666C8.82123 3.95233 8.89674 3.98361 8.97548 3.98361H10.0244C10.1031 3.98361 10.1787 3.95233 10.2343 3.89666C10.29 3.84098 10.3213 3.76547 10.3213 3.68674C10.3213 3.608 10.29 3.53249 10.2343 3.47682C10.1787 3.42114 10.1031 3.38986 10.0244 3.38986Z" fill="#1B88D7"/>
<path d="M13.6566 9.45765C13.7349 9.46606 13.8133 9.44303 13.8746 9.39362C13.9359 9.34422 13.9751 9.2725 13.9835 9.19421L14.132 7.81397C14.1399 7.73592 14.1167 7.6579 14.0673 7.59696C14.0179 7.53601 13.9464 7.49709 13.8684 7.4887C13.7904 7.48031 13.7122 7.50313 13.651 7.55219C13.5898 7.60124 13.5505 7.67252 13.5416 7.75047L13.3932 9.13072C13.3848 9.209 13.4078 9.28743 13.4572 9.34874C13.5066 9.41005 13.5783 9.44923 13.6566 9.45765ZM11.5782 9.45891C11.6171 9.46101 11.6561 9.45541 11.6928 9.44245C11.7296 9.42949 11.7635 9.40941 11.7925 9.38336C11.8215 9.35731 11.8451 9.3258 11.8619 9.29064C11.8787 9.25547 11.8885 9.21734 11.8906 9.17841L11.9648 7.79816C11.969 7.71954 11.9418 7.64247 11.8892 7.58388C11.8366 7.5253 11.7629 7.49001 11.6843 7.48577C11.6454 7.48365 11.6064 7.48922 11.5696 7.50218C11.5328 7.51513 11.499 7.53521 11.47 7.56126C11.4409 7.58731 11.4174 7.61883 11.4005 7.65401C11.3837 7.68919 11.374 7.72734 11.3719 7.76628L11.2977 9.14653C11.2935 9.22514 11.3207 9.30222 11.3733 9.36081C11.4259 9.41939 11.4996 9.45468 11.5782 9.45891ZM9.49995 9.45936C9.57868 9.45936 9.65419 9.42808 9.70987 9.37241C9.76554 9.31673 9.79682 9.24122 9.79682 9.16248V7.7822C9.79682 7.70347 9.76554 7.62795 9.70987 7.57228C9.65419 7.5166 9.57868 7.48533 9.49995 7.48533C9.42121 7.48533 9.3457 7.5166 9.29002 7.57228C9.23435 7.62795 9.20307 7.70347 9.20307 7.7822V9.16248C9.20307 9.24122 9.23435 9.31673 9.29002 9.37241C9.3457 9.42808 9.42121 9.45936 9.49995 9.45936ZM7.10932 9.17844C7.11102 9.21765 7.12048 9.25614 7.13715 9.29167C7.15382 9.3272 7.17737 9.35907 7.20643 9.38544C7.2355 9.41181 7.26951 9.43216 7.30649 9.4453C7.34347 9.45845 7.38269 9.46413 7.42188 9.46202C7.46107 9.45991 7.49945 9.45005 7.5348 9.43301C7.57016 9.41598 7.60178 9.3921 7.62785 9.36276C7.65392 9.33342 7.67391 9.2992 7.68667 9.26208C7.69943 9.22497 7.7047 9.18569 7.70218 9.14653L7.62796 7.76628C7.61917 7.60256 7.47964 7.47657 7.31558 7.48577C7.23696 7.49001 7.16325 7.5253 7.11065 7.58388C7.05805 7.64247 7.03088 7.71954 7.0351 7.79816L7.10932 9.17844ZM5.01639 9.19421C5.02008 9.23335 5.03151 9.27136 5.05002 9.30605C5.06852 9.34073 5.09372 9.3714 5.12417 9.39626C5.15462 9.42113 5.1897 9.4397 5.22738 9.4509C5.26507 9.46209 5.3046 9.4657 5.34368 9.4615C5.38277 9.45729 5.42063 9.44537 5.45507 9.42642C5.48951 9.40747 5.51985 9.38187 5.54432 9.3511C5.56878 9.32033 5.5869 9.28501 5.5976 9.24718C5.60831 9.20936 5.6114 9.16979 5.60669 9.13076L5.45825 7.75047C5.4541 7.7117 5.44235 7.67413 5.42366 7.6399C5.40498 7.60568 5.37974 7.57547 5.34938 7.551C5.31902 7.52654 5.28413 7.5083 5.24671 7.49732C5.2093 7.48634 5.17009 7.48285 5.13132 7.48703C5.05303 7.49546 4.98131 7.53464 4.93191 7.59595C4.88251 7.65726 4.85949 7.73568 4.86792 7.81397L5.01639 9.19421ZM12.9752 12.1401C12.9935 12.1057 13.0048 12.068 13.0085 12.0292C13.0122 11.9904 13.0082 11.9512 12.9968 11.9139C12.9854 11.8767 12.9667 11.842 12.9419 11.812C12.9171 11.7819 12.8866 11.757 12.8521 11.7387C12.8177 11.7205 12.78 11.7092 12.7412 11.7055C12.7024 11.7018 12.6632 11.7057 12.6259 11.7172C12.5887 11.7286 12.554 11.7473 12.5239 11.7721C12.4939 11.7969 12.469 11.8274 12.4507 11.8619C12.2362 12.2661 12.3269 12.6632 12.4068 13.0134C12.4747 13.3108 12.5333 13.5676 12.4351 13.8286C12.4083 13.9021 12.4115 13.9833 12.4442 14.0544C12.4768 14.1255 12.5362 14.1808 12.6095 14.2084C12.6827 14.2359 12.7639 14.2334 12.8353 14.2014C12.9067 14.1694 12.9626 14.1105 12.9909 14.0375C13.1518 13.6095 13.0636 13.2226 12.9857 12.8814C12.9104 12.5515 12.8696 12.3392 12.9752 12.1401V12.1401ZM9.77604 12.1401C9.79475 12.1057 9.80645 12.0678 9.81046 12.0288C9.81446 11.9898 9.81069 11.9504 9.79937 11.9128C9.78805 11.8753 9.7694 11.8403 9.7445 11.81C9.71959 11.7797 9.68893 11.7546 9.65428 11.7363C9.61963 11.7179 9.58168 11.7065 9.54263 11.7029C9.50357 11.6993 9.46418 11.7034 9.42674 11.7151C9.38929 11.7268 9.35453 11.7458 9.32447 11.7709C9.2944 11.7961 9.26963 11.827 9.25157 11.8619C9.03708 12.2661 9.12766 12.6632 9.20763 13.0134C9.27547 13.3108 9.33407 13.5676 9.23591 13.8286C9.20821 13.9023 9.21091 13.984 9.24344 14.0557C9.27596 14.1274 9.33564 14.1833 9.40934 14.211C9.48304 14.2387 9.56473 14.236 9.63644 14.2034C9.70815 14.1709 9.76399 14.1112 9.7917 14.0375C9.95264 13.6095 9.86436 13.2226 9.7865 12.8814C9.71117 12.5515 9.67043 12.3392 9.77604 12.1401V12.1401ZM6.57688 12.1401C6.59515 12.1057 6.60646 12.068 6.61016 12.0292C6.61386 11.9904 6.60989 11.9512 6.59845 11.9139C6.58702 11.8767 6.56836 11.842 6.54353 11.812C6.51871 11.7819 6.48821 11.757 6.45377 11.7387C6.41933 11.7205 6.38163 11.7092 6.34282 11.7055C6.30401 11.7018 6.26485 11.7057 6.22757 11.7172C6.1903 11.7286 6.15564 11.7473 6.12558 11.7721C6.09552 11.7969 6.07065 11.8274 6.05237 11.8619C5.83788 12.2661 5.9285 12.6632 6.00844 13.0134C6.07631 13.3108 6.1349 13.5676 6.03675 13.8286C6.0099 13.9021 6.01316 13.9833 6.04582 14.0544C6.07847 14.1255 6.13789 14.1808 6.21114 14.2084C6.28439 14.2359 6.36554 14.2334 6.43696 14.2014C6.50838 14.1694 6.56428 14.1105 6.5925 14.0375C6.75348 13.6095 6.6652 13.2226 6.5873 12.8814C6.51201 12.5515 6.47126 12.3392 6.57688 12.1401V12.1401ZM10.0244 3.38986H8.97548C8.89674 3.38986 8.82123 3.42114 8.76556 3.47682C8.70988 3.53249 8.6786 3.608 8.6786 3.68674C8.6786 3.76547 8.70988 3.84098 8.76556 3.89666C8.82123 3.95233 8.89674 3.98361 8.97548 3.98361H10.0244C10.1031 3.98361 10.1787 3.95233 10.2343 3.89666C10.29 3.84098 10.3213 3.76547 10.3213 3.68674C10.3213 3.608 10.29 3.53249 10.2343 3.47682C10.1787 3.42114 10.1031 3.38986 10.0244 3.38986Z" stroke="#1B88D7" stroke-width="0.4" mask="url(#path-2-outside-1_2_609)"/>
</svg>
