<svg width="15" height="13" viewBox="0 0 15 13" fill="none" xmlns="http://www.w3.org/2000/svg">
<path d="M10.625 12.1255V10.8755C10.625 10.2124 10.3616 9.57656 9.89277 9.10772C9.42393 8.63888 8.78804 8.37549 8.125 8.37549H3.125C2.46196 8.37549 1.82607 8.63888 1.35723 9.10772C0.888392 9.57656 0.625 10.2124 0.625 10.8755V12.1255M14.375 12.1255V10.8755C14.3746 10.3216 14.1902 9.78347 13.8509 9.34569C13.5115 8.9079 13.0363 8.59522 12.5 8.45674M10 0.956738C10.5378 1.09443 11.0144 1.40718 11.3548 1.84568C11.6952 2.28419 11.8799 2.82351 11.8799 3.37861C11.8799 3.93372 11.6952 4.47304 11.3548 4.91154C11.0144 5.35005 10.5378 5.6628 10 5.80049M8.125 3.37549C8.125 4.7562 7.00571 5.87549 5.625 5.87549C4.24429 5.87549 3.125 4.7562 3.125 3.37549C3.125 1.99478 4.24429 0.875488 5.625 0.875488C7.00571 0.875488 8.125 1.99478 8.125 3.37549Z" stroke="#1B88D7" stroke-width="0.8" stroke-linecap="round" stroke-linejoin="round"/>
</svg>
