<svg width="40" height="40" viewBox="0 0 40 40" fill="none" xmlns="http://www.w3.org/2000/svg">
<g clip-path="url(#clip0_2_274)">
<path fill-rule="evenodd" clip-rule="evenodd" d="M35.7812 16.0156H29.4531C29.1406 16.0156 28.9844 15.8594 28.9844 15.5469V9.21875C28.9844 8.98438 29.1406 8.75 29.4531 8.75H35.7812C36.0156 8.75 36.25 8.98438 36.25 9.21875V15.5469C36.25 15.8594 36.0156 16.0156 35.7812 16.0156ZM29.9219 15.0781H35.3125V9.6875H29.9219V15.0781Z" fill="#B1B6B9"/>
<path fill-rule="evenodd" clip-rule="evenodd" d="M35.7812 12.8906H29.4531C29.1406 12.8906 28.9844 12.6562 28.9844 12.4219C28.9844 12.1094 29.1406 11.9531 29.4531 11.9531H35.7812C36.0156 11.9531 36.25 12.1094 36.25 12.4219C36.25 12.6562 36.0156 12.8906 35.7812 12.8906Z" fill="#B1B6B9"/>
<path fill-rule="evenodd" clip-rule="evenodd" d="M32.5781 16.0156C32.3438 16.0156 32.1094 15.8594 32.1094 15.5469V9.21875C32.1094 8.98438 32.3438 8.75 32.5781 8.75C32.8125 8.75 33.0469 8.98438 33.0469 9.21875V15.5469C33.0469 15.8594 32.8125 16.0156 32.5781 16.0156ZM17.7344 32.1875H6.71875C6.48438 32.1875 6.25 32.0312 6.25 31.7188V20.7812C6.25 20.5469 6.48438 20.3125 6.71875 20.3125H17.7344C17.9688 20.3125 18.2031 20.5469 18.2031 20.7812V31.7188C18.2031 32.0312 17.9688 32.1875 17.7344 32.1875ZM7.1875 31.25H17.2656V21.25H7.1875V31.25Z" fill="#B1B6B9"/>
<path fill-rule="evenodd" clip-rule="evenodd" d="M17.7344 26.7188H6.71875C6.48438 26.7188 6.25 26.5625 6.25 26.25C6.25 26.0156 6.48438 25.7812 6.71875 25.7812H17.7344C17.9688 25.7812 18.2031 26.0156 18.2031 26.25C18.2031 26.5625 17.9688 26.7188 17.7344 26.7188Z" fill="#B1B6B9"/>
<path fill-rule="evenodd" clip-rule="evenodd" d="M12.2656 32.1875C11.9531 32.1875 11.7969 32.0312 11.7969 31.7188V20.7812C11.7969 20.5469 11.9531 20.3125 12.2656 20.3125C12.5 20.3125 12.7344 20.5469 12.7344 20.7812V31.7188C12.7344 32.0312 12.5 32.1875 12.2656 32.1875ZM39.5312 39.5312H0.46875C0.15625 39.5312 0 39.2969 0 39.0625V35.3125C0 35.0781 0.15625 34.8438 0.46875 34.8438H39.5312C39.8438 34.8438 40 35.0781 40 35.3125V39.0625C40 39.2969 39.8438 39.5312 39.5312 39.5312ZM0.9375 38.5938H39.0625V35.7812H0.9375V38.5938Z" fill="#B1B6B9"/>
<path fill-rule="evenodd" clip-rule="evenodd" d="M37.2656 35.7812H2.73438C2.5 35.7812 2.26562 35.625 2.26562 35.3125V17.9688C2.26562 17.7344 2.5 17.5 2.73438 17.5H37.2656C37.5 17.5 37.7344 17.7344 37.7344 17.9688V35.3125C37.7344 35.625 37.5 35.7812 37.2656 35.7812ZM3.20312 34.8438H36.7969V18.4375H3.20312V34.8438Z" fill="#B1B6B9"/>
<path fill-rule="evenodd" clip-rule="evenodd" d="M25.625 18.4375H0.46875C0.15625 18.4375 0 18.2031 0 17.9688V14.2969C0 13.9844 0.15625 13.8281 0.46875 13.8281H25.625C25.8594 13.8281 26.0938 13.9844 26.0938 14.2969V17.9688C26.0938 18.2031 25.8594 18.4375 25.625 18.4375ZM0.9375 17.5H25.1562V14.7656H0.9375V17.5Z" fill="#B1B6B9"/>
<path fill-rule="evenodd" clip-rule="evenodd" d="M39.5312 18.4375H25.625C25.3906 18.4375 25.1562 18.2031 25.1562 17.9688V0.9375C25.1562 0.78125 25.2344 0.625 25.3906 0.546875C25.5469 0.46875 25.7031 0.46875 25.8594 0.546875L39.7656 8.67188C39.9219 8.75 40 8.90625 40 9.0625V17.9688C40 18.2031 39.8438 18.4375 39.5312 18.4375ZM26.0938 17.5H39.0625V9.375L26.0938 1.79688V17.5Z" fill="#B1B6B9"/>
<path fill-rule="evenodd" clip-rule="evenodd" d="M25.625 6.71875H0.46875C0.15625 6.71875 0 6.5625 0 6.25V2.57812C0 2.34375 0.15625 2.10938 0.46875 2.10938H25.625C25.8594 2.10938 26.0938 2.34375 26.0938 2.57812V6.25C26.0938 6.5625 25.8594 6.71875 25.625 6.71875ZM0.9375 5.78125H25.1562V3.04688H0.9375V5.78125Z" fill="#B1B6B9"/>
<path fill-rule="evenodd" clip-rule="evenodd" d="M25.625 14.7656H3.35938C3.125 14.7656 2.89062 14.5312 2.89062 14.2969V6.25C2.89062 6.01562 3.125 5.78125 3.35938 5.78125H25.625C25.8594 5.78125 26.0938 6.01562 26.0938 6.25V14.2969C26.0938 14.5312 25.8594 14.7656 25.625 14.7656ZM3.82812 13.8281H25.1562V6.71875H3.82812V13.8281ZM33.9062 35.7812H22.1094C21.875 35.7812 21.6406 35.625 21.6406 35.3125V25.5469C21.6406 25.2344 21.875 25.0781 22.1094 25.0781H33.9062C34.1406 25.0781 34.375 25.2344 34.375 25.5469V35.3125C34.375 35.625 34.1406 35.7812 33.9062 35.7812ZM22.5781 34.8438H33.4375V26.0156H22.5781V34.8438Z" fill="#B1B6B9"/>
<path fill-rule="evenodd" clip-rule="evenodd" d="M28.0469 35.7812C27.7344 35.7812 27.5781 35.625 27.5781 35.3125V25.5469C27.5781 25.2344 27.7344 25.0781 28.0469 25.0781C28.2812 25.0781 28.5156 25.2344 28.5156 25.5469V35.3125C28.5156 35.625 28.2812 35.7812 28.0469 35.7812Z" fill="#B1B6B9"/>
<path fill-rule="evenodd" clip-rule="evenodd" d="M28.0469 30.9375H26.6406C26.4062 30.9375 26.1719 30.7031 26.1719 30.4688C26.1719 30.1562 26.4062 30 26.6406 30H28.0469C28.2812 30 28.5156 30.1562 28.5156 30.4688C28.5156 30.7031 28.2812 30.9375 28.0469 30.9375Z" fill="#B1B6B9"/>
<path fill-rule="evenodd" clip-rule="evenodd" d="M29.4531 30.9375H28.0469C27.7344 30.9375 27.5781 30.7031 27.5781 30.4687C27.5781 30.1562 27.7344 30 28.0469 30H29.4531C29.6875 30 29.9219 30.1562 29.9219 30.4687C29.9219 30.7031 29.6875 30.9375 29.4531 30.9375ZM17.1094 12.1094C16.9531 12.1094 16.7969 12.0312 16.7188 11.875L15.0781 9.14062C14.9219 8.90624 15 8.59374 15.2344 8.51562C15.4688 8.35937 15.7812 8.43749 15.9375 8.67187L17.5 11.4062C17.6562 11.6406 17.5781 11.9531 17.3438 12.0312C17.2656 12.1094 17.1875 12.1094 17.1094 12.1094ZM13.5156 12.1094C13.3594 12.1094 13.2031 12.0312 13.125 11.875L11.4844 9.14062C11.4062 8.90624 11.4844 8.59374 11.7188 8.51562C11.875 8.35937 12.1875 8.43749 12.3438 8.67187L13.9062 11.4062C14.0625 11.6406 13.9844 11.9531 13.75 12.0312C13.6719 12.1094 13.5938 12.1094 13.5156 12.1094Z" fill="#B1B6B9"/>
</g>
<defs>
<clipPath id="clip0_2_274">
<rect width="40" height="40" fill="white"/>
</clipPath>
</defs>
</svg>
