<svg width="15" height="15" viewBox="0 0 15 15" fill="none" xmlns="http://www.w3.org/2000/svg">
<g clip-path="url(#clip0_2_2184)">
<mask id="path-1-outside-1_2_2184" maskUnits="userSpaceOnUse" x="-0.714844" y="-0.276855" width="16" height="15" fill="black">
<rect fill="white" x="-0.714844" y="-0.276855" width="16" height="15"/>
<path fill-rule="evenodd" clip-rule="evenodd" d="M2.52474 0.726659L2.52403 0.726804C2.49453 0.732794 2.46696 0.745989 2.44379 0.765214C2.42055 0.784379 2.40243 0.808998 2.39102 0.836874L2.39076 0.837519C2.38587 0.849582 2.38228 0.862134 2.38006 0.874959L0.289003 11.8444L0.288828 11.8454L0.288653 11.8461L0.288448 11.8472L0.288243 11.8484L0.288038 11.8495L0.287833 11.8506L0.287628 11.8517L0.287453 11.8529L0.287278 11.854L0.287103 11.8552L0.286958 11.8563L0.286783 11.8574L0.286638 11.8586L0.286493 11.8598L0.286378 11.8609L0.286233 11.862L0.286118 11.8632L0.286003 11.8644L0.285973 11.8647C0.28533 11.8715 0.285066 11.8783 0.285183 11.8852V13.3567C0.285183 13.8648 0.697653 14.2773 1.20572 14.2773H13.7934C14.3014 14.2773 14.7139 13.8648 14.7139 13.3567V11.8852C14.7141 11.8715 14.7128 11.8578 14.7101 11.8444L12.619 0.874959C12.6168 0.862132 12.6132 0.84958 12.6083 0.837519L12.608 0.836874C12.5966 0.808997 12.5785 0.784377 12.5553 0.765214C12.5321 0.745996 12.5045 0.732802 12.475 0.726804L12.4743 0.726659C12.4615 0.724108 12.4485 0.72294 12.4355 0.723174H2.56353C2.55051 0.722939 2.53751 0.724107 2.52474 0.726659ZM14.3477 12.065H0.651378V13.3567C0.651378 13.6627 0.899758 13.911 1.2057 13.911H13.7933C14.0993 13.911 14.3477 13.6627 14.3477 13.3567L14.3477 12.065ZM2.712 1.08938L0.689583 11.6988H14.3095L12.287 1.08938H2.712ZM12.0373 9.83262L11.8477 9.64304C11.7763 9.57156 11.6603 9.57156 11.5888 9.64304C11.5173 9.7145 11.5173 9.83051 11.5888 9.90197L11.7784 10.0916L11.5888 10.2812C11.5173 10.3526 11.5173 10.4687 11.5888 10.5401C11.6603 10.6116 11.7763 10.6116 11.8477 10.5401L12.0373 10.3505L12.2269 10.5401C12.2984 10.6116 12.4144 10.6116 12.4859 10.5401C12.5573 10.4687 12.5573 10.3526 12.4859 10.2812L12.2963 10.0916L12.4859 9.90197C12.5573 9.83051 12.5573 9.7145 12.4859 9.64304C12.4144 9.57156 12.2984 9.57156 12.2269 9.64304L12.0373 9.83262ZM2.70808 9.83262L2.51847 9.64304C2.44701 9.57156 2.331 9.57156 2.25954 9.64304C2.18806 9.7145 2.18806 9.83051 2.25954 9.90197L2.44912 10.0916L2.25954 10.2812C2.18806 10.3526 2.18806 10.4687 2.25954 10.5401C2.331 10.6116 2.44701 10.6116 2.51847 10.5401L2.70808 10.3505L2.89766 10.5401C2.96911 10.6116 3.08516 10.6116 3.15661 10.5401C3.22807 10.4687 3.22807 10.3526 3.15661 10.2812L2.96703 10.0916L3.15661 9.90197C3.22807 9.83051 3.22807 9.7145 3.15661 9.64304C3.08516 9.57156 2.96911 9.57156 2.89766 9.64304L2.70808 9.83262ZM7.3727 9.83262L7.18312 9.64304C7.11166 9.57156 6.99562 9.57156 6.92416 9.64304C6.85271 9.7145 6.85271 9.83051 6.92416 9.90197L7.11374 10.0916L6.92416 10.2812C6.85271 10.3526 6.85271 10.4687 6.92416 10.5401C6.99562 10.6116 7.11166 10.6116 7.18312 10.5401L7.3727 10.3505L7.56231 10.5401C7.63376 10.6116 7.74978 10.6116 7.82123 10.5401C7.89272 10.4687 7.89272 10.3526 7.82123 10.2812L7.63165 10.0916L7.82123 9.90197C7.89272 9.83051 7.89272 9.7145 7.82123 9.64304C7.74978 9.57156 7.63376 9.57156 7.56231 9.64304L7.3727 9.83262ZM11.3514 6.09405L11.1618 5.90447C11.0903 5.83302 10.9743 5.83302 10.9028 5.90447C10.8314 5.97593 10.8314 6.09194 10.9028 6.16343L11.0924 6.35301L10.9028 6.54259C10.8314 6.61404 10.8314 6.73009 10.9028 6.80154C10.9743 6.873 11.0903 6.873 11.1618 6.80154L11.3514 6.61196L11.5409 6.80154C11.6124 6.873 11.7284 6.873 11.7999 6.80154C11.8713 6.73009 11.8713 6.61404 11.7999 6.54259L11.6103 6.35301L11.7999 6.16343C11.8713 6.09194 11.8713 5.97593 11.7999 5.90447C11.7284 5.83302 11.6124 5.83302 11.5409 5.90447L11.3514 6.09405ZM7.3727 6.09405L7.18312 5.90447C7.11166 5.83302 6.99562 5.83302 6.92416 5.90447C6.85271 5.97593 6.85271 6.09194 6.92416 6.16343L7.11374 6.35301L6.92416 6.54259C6.85271 6.61404 6.85271 6.73009 6.92416 6.80154C6.99562 6.873 7.11166 6.873 7.18312 6.80154L7.3727 6.61196L7.56231 6.80154C7.63376 6.873 7.74978 6.873 7.82123 6.80154C7.89272 6.73009 7.89272 6.61404 7.82123 6.54259L7.63165 6.35301L7.82123 6.16343C7.89272 6.09194 7.89272 5.97593 7.82123 5.90447C7.74978 5.83302 7.63376 5.83302 7.56231 5.90447L7.3727 6.09405ZM3.39403 6.09405L3.20445 5.90447C3.133 5.83302 3.01695 5.83302 2.9455 5.90447C2.87404 5.97593 2.87404 6.09194 2.9455 6.16343L3.13511 6.35301L2.9455 6.54259C2.87404 6.61404 2.87404 6.73009 2.9455 6.80154C3.01695 6.873 3.133 6.873 3.20445 6.80154L3.39403 6.61196L3.58364 6.80154C3.6551 6.873 3.77111 6.873 3.8426 6.80154C3.91405 6.73009 3.91405 6.61404 3.8426 6.54259L3.65299 6.35301L3.8426 6.16343C3.91405 6.09194 3.91405 5.97593 3.8426 5.90447C3.77111 5.83302 3.6551 5.83302 3.58364 5.90447L3.39403 6.09405ZM10.7494 2.61443L10.5598 2.80404C10.4884 2.8755 10.4884 2.99151 10.5598 3.06297C10.6313 3.13445 10.7473 3.13445 10.8188 3.06297L11.0084 2.87339L11.198 3.06297C11.2694 3.13445 11.3855 3.13445 11.4569 3.06297C11.5284 2.99151 11.5284 2.8755 11.4569 2.80404L11.2673 2.61443L11.4569 2.42485C11.5284 2.3534 11.5284 2.23735 11.4569 2.1659C11.3855 2.09444 11.2694 2.09444 11.198 2.1659L11.0084 2.35548L10.8188 2.1659C10.7473 2.09444 10.6313 2.09444 10.5598 2.1659C10.4884 2.23735 10.4884 2.3534 10.5598 2.42485L10.7494 2.61443ZM7.3727 2.35548L7.18312 2.1659C7.11166 2.09444 6.99562 2.09444 6.92416 2.1659C6.85271 2.23735 6.85271 2.3534 6.92416 2.42485L7.11374 2.61443L6.92416 2.80404C6.85271 2.8755 6.85271 2.99151 6.92416 3.06297C6.99562 3.13445 7.11166 3.13445 7.18312 3.06297L7.3727 2.87339L7.56231 3.06297C7.63376 3.13445 7.74978 3.13445 7.82123 3.06297C7.89272 2.99151 7.89272 2.8755 7.82123 2.80404L7.63165 2.61443L7.82123 2.42485C7.89272 2.3534 7.89272 2.23735 7.82123 2.1659C7.74978 2.09444 7.63376 2.09444 7.56231 2.1659L7.3727 2.35548ZM3.47809 2.61443L3.28851 2.80404C3.21702 2.8755 3.21702 2.99151 3.28851 3.06297C3.35996 3.13445 3.47598 3.13445 3.54743 3.06297L3.73704 2.87339L3.92662 3.06297C3.99808 3.13445 4.11412 3.13445 4.18558 3.06297C4.25703 2.99151 4.25703 2.8755 4.18558 2.80404L3.996 2.61443L4.18558 2.42485C4.25703 2.3534 4.25703 2.23735 4.18558 2.1659C4.11412 2.09444 3.99808 2.09444 3.92662 2.1659L3.73704 2.35548L3.54743 2.1659C3.47598 2.09444 3.35996 2.09444 3.28851 2.1659C3.21702 2.23735 3.21702 2.3534 3.28851 2.42485L3.47809 2.61443Z"/>
</mask>
<path fill-rule="evenodd" clip-rule="evenodd" d="M2.52474 0.726659L2.52403 0.726804C2.49453 0.732794 2.46696 0.745989 2.44379 0.765214C2.42055 0.784379 2.40243 0.808998 2.39102 0.836874L2.39076 0.837519C2.38587 0.849582 2.38228 0.862134 2.38006 0.874959L0.289003 11.8444L0.288828 11.8454L0.288653 11.8461L0.288448 11.8472L0.288243 11.8484L0.288038 11.8495L0.287833 11.8506L0.287628 11.8517L0.287453 11.8529L0.287278 11.854L0.287103 11.8552L0.286958 11.8563L0.286783 11.8574L0.286638 11.8586L0.286493 11.8598L0.286378 11.8609L0.286233 11.862L0.286118 11.8632L0.286003 11.8644L0.285973 11.8647C0.28533 11.8715 0.285066 11.8783 0.285183 11.8852V13.3567C0.285183 13.8648 0.697653 14.2773 1.20572 14.2773H13.7934C14.3014 14.2773 14.7139 13.8648 14.7139 13.3567V11.8852C14.7141 11.8715 14.7128 11.8578 14.7101 11.8444L12.619 0.874959C12.6168 0.862132 12.6132 0.84958 12.6083 0.837519L12.608 0.836874C12.5966 0.808997 12.5785 0.784377 12.5553 0.765214C12.5321 0.745996 12.5045 0.732802 12.475 0.726804L12.4743 0.726659C12.4615 0.724108 12.4485 0.72294 12.4355 0.723174H2.56353C2.55051 0.722939 2.53751 0.724107 2.52474 0.726659ZM14.3477 12.065H0.651378V13.3567C0.651378 13.6627 0.899758 13.911 1.2057 13.911H13.7933C14.0993 13.911 14.3477 13.6627 14.3477 13.3567L14.3477 12.065ZM2.712 1.08938L0.689583 11.6988H14.3095L12.287 1.08938H2.712ZM12.0373 9.83262L11.8477 9.64304C11.7763 9.57156 11.6603 9.57156 11.5888 9.64304C11.5173 9.7145 11.5173 9.83051 11.5888 9.90197L11.7784 10.0916L11.5888 10.2812C11.5173 10.3526 11.5173 10.4687 11.5888 10.5401C11.6603 10.6116 11.7763 10.6116 11.8477 10.5401L12.0373 10.3505L12.2269 10.5401C12.2984 10.6116 12.4144 10.6116 12.4859 10.5401C12.5573 10.4687 12.5573 10.3526 12.4859 10.2812L12.2963 10.0916L12.4859 9.90197C12.5573 9.83051 12.5573 9.7145 12.4859 9.64304C12.4144 9.57156 12.2984 9.57156 12.2269 9.64304L12.0373 9.83262ZM2.70808 9.83262L2.51847 9.64304C2.44701 9.57156 2.331 9.57156 2.25954 9.64304C2.18806 9.7145 2.18806 9.83051 2.25954 9.90197L2.44912 10.0916L2.25954 10.2812C2.18806 10.3526 2.18806 10.4687 2.25954 10.5401C2.331 10.6116 2.44701 10.6116 2.51847 10.5401L2.70808 10.3505L2.89766 10.5401C2.96911 10.6116 3.08516 10.6116 3.15661 10.5401C3.22807 10.4687 3.22807 10.3526 3.15661 10.2812L2.96703 10.0916L3.15661 9.90197C3.22807 9.83051 3.22807 9.7145 3.15661 9.64304C3.08516 9.57156 2.96911 9.57156 2.89766 9.64304L2.70808 9.83262ZM7.3727 9.83262L7.18312 9.64304C7.11166 9.57156 6.99562 9.57156 6.92416 9.64304C6.85271 9.7145 6.85271 9.83051 6.92416 9.90197L7.11374 10.0916L6.92416 10.2812C6.85271 10.3526 6.85271 10.4687 6.92416 10.5401C6.99562 10.6116 7.11166 10.6116 7.18312 10.5401L7.3727 10.3505L7.56231 10.5401C7.63376 10.6116 7.74978 10.6116 7.82123 10.5401C7.89272 10.4687 7.89272 10.3526 7.82123 10.2812L7.63165 10.0916L7.82123 9.90197C7.89272 9.83051 7.89272 9.7145 7.82123 9.64304C7.74978 9.57156 7.63376 9.57156 7.56231 9.64304L7.3727 9.83262ZM11.3514 6.09405L11.1618 5.90447C11.0903 5.83302 10.9743 5.83302 10.9028 5.90447C10.8314 5.97593 10.8314 6.09194 10.9028 6.16343L11.0924 6.35301L10.9028 6.54259C10.8314 6.61404 10.8314 6.73009 10.9028 6.80154C10.9743 6.873 11.0903 6.873 11.1618 6.80154L11.3514 6.61196L11.5409 6.80154C11.6124 6.873 11.7284 6.873 11.7999 6.80154C11.8713 6.73009 11.8713 6.61404 11.7999 6.54259L11.6103 6.35301L11.7999 6.16343C11.8713 6.09194 11.8713 5.97593 11.7999 5.90447C11.7284 5.83302 11.6124 5.83302 11.5409 5.90447L11.3514 6.09405ZM7.3727 6.09405L7.18312 5.90447C7.11166 5.83302 6.99562 5.83302 6.92416 5.90447C6.85271 5.97593 6.85271 6.09194 6.92416 6.16343L7.11374 6.35301L6.92416 6.54259C6.85271 6.61404 6.85271 6.73009 6.92416 6.80154C6.99562 6.873 7.11166 6.873 7.18312 6.80154L7.3727 6.61196L7.56231 6.80154C7.63376 6.873 7.74978 6.873 7.82123 6.80154C7.89272 6.73009 7.89272 6.61404 7.82123 6.54259L7.63165 6.35301L7.82123 6.16343C7.89272 6.09194 7.89272 5.97593 7.82123 5.90447C7.74978 5.83302 7.63376 5.83302 7.56231 5.90447L7.3727 6.09405ZM3.39403 6.09405L3.20445 5.90447C3.133 5.83302 3.01695 5.83302 2.9455 5.90447C2.87404 5.97593 2.87404 6.09194 2.9455 6.16343L3.13511 6.35301L2.9455 6.54259C2.87404 6.61404 2.87404 6.73009 2.9455 6.80154C3.01695 6.873 3.133 6.873 3.20445 6.80154L3.39403 6.61196L3.58364 6.80154C3.6551 6.873 3.77111 6.873 3.8426 6.80154C3.91405 6.73009 3.91405 6.61404 3.8426 6.54259L3.65299 6.35301L3.8426 6.16343C3.91405 6.09194 3.91405 5.97593 3.8426 5.90447C3.77111 5.83302 3.6551 5.83302 3.58364 5.90447L3.39403 6.09405ZM10.7494 2.61443L10.5598 2.80404C10.4884 2.8755 10.4884 2.99151 10.5598 3.06297C10.6313 3.13445 10.7473 3.13445 10.8188 3.06297L11.0084 2.87339L11.198 3.06297C11.2694 3.13445 11.3855 3.13445 11.4569 3.06297C11.5284 2.99151 11.5284 2.8755 11.4569 2.80404L11.2673 2.61443L11.4569 2.42485C11.5284 2.3534 11.5284 2.23735 11.4569 2.1659C11.3855 2.09444 11.2694 2.09444 11.198 2.1659L11.0084 2.35548L10.8188 2.1659C10.7473 2.09444 10.6313 2.09444 10.5598 2.1659C10.4884 2.23735 10.4884 2.3534 10.5598 2.42485L10.7494 2.61443ZM7.3727 2.35548L7.18312 2.1659C7.11166 2.09444 6.99562 2.09444 6.92416 2.1659C6.85271 2.23735 6.85271 2.3534 6.92416 2.42485L7.11374 2.61443L6.92416 2.80404C6.85271 2.8755 6.85271 2.99151 6.92416 3.06297C6.99562 3.13445 7.11166 3.13445 7.18312 3.06297L7.3727 2.87339L7.56231 3.06297C7.63376 3.13445 7.74978 3.13445 7.82123 3.06297C7.89272 2.99151 7.89272 2.8755 7.82123 2.80404L7.63165 2.61443L7.82123 2.42485C7.89272 2.3534 7.89272 2.23735 7.82123 2.1659C7.74978 2.09444 7.63376 2.09444 7.56231 2.1659L7.3727 2.35548ZM3.47809 2.61443L3.28851 2.80404C3.21702 2.8755 3.21702 2.99151 3.28851 3.06297C3.35996 3.13445 3.47598 3.13445 3.54743 3.06297L3.73704 2.87339L3.92662 3.06297C3.99808 3.13445 4.11412 3.13445 4.18558 3.06297C4.25703 2.99151 4.25703 2.8755 4.18558 2.80404L3.996 2.61443L4.18558 2.42485C4.25703 2.3534 4.25703 2.23735 4.18558 2.1659C4.11412 2.09444 3.99808 2.09444 3.92662 2.1659L3.73704 2.35548L3.54743 2.1659C3.47598 2.09444 3.35996 2.09444 3.28851 2.1659C3.21702 2.23735 3.21702 2.3534 3.28851 2.42485L3.47809 2.61443Z" fill="#1B88D7"/>
<path fill-rule="evenodd" clip-rule="evenodd" d="M2.52474 0.726659L2.52403 0.726804C2.49453 0.732794 2.46696 0.745989 2.44379 0.765214C2.42055 0.784379 2.40243 0.808998 2.39102 0.836874L2.39076 0.837519C2.38587 0.849582 2.38228 0.862134 2.38006 0.874959L0.289003 11.8444L0.288828 11.8454L0.288653 11.8461L0.288448 11.8472L0.288243 11.8484L0.288038 11.8495L0.287833 11.8506L0.287628 11.8517L0.287453 11.8529L0.287278 11.854L0.287103 11.8552L0.286958 11.8563L0.286783 11.8574L0.286638 11.8586L0.286493 11.8598L0.286378 11.8609L0.286233 11.862L0.286118 11.8632L0.286003 11.8644L0.285973 11.8647C0.28533 11.8715 0.285066 11.8783 0.285183 11.8852V13.3567C0.285183 13.8648 0.697653 14.2773 1.20572 14.2773H13.7934C14.3014 14.2773 14.7139 13.8648 14.7139 13.3567V11.8852C14.7141 11.8715 14.7128 11.8578 14.7101 11.8444L12.619 0.874959C12.6168 0.862132 12.6132 0.84958 12.6083 0.837519L12.608 0.836874C12.5966 0.808997 12.5785 0.784377 12.5553 0.765214C12.5321 0.745996 12.5045 0.732802 12.475 0.726804L12.4743 0.726659C12.4615 0.724108 12.4485 0.72294 12.4355 0.723174H2.56353C2.55051 0.722939 2.53751 0.724107 2.52474 0.726659ZM14.3477 12.065H0.651378V13.3567C0.651378 13.6627 0.899758 13.911 1.2057 13.911H13.7933C14.0993 13.911 14.3477 13.6627 14.3477 13.3567L14.3477 12.065ZM2.712 1.08938L0.689583 11.6988H14.3095L12.287 1.08938H2.712ZM12.0373 9.83262L11.8477 9.64304C11.7763 9.57156 11.6603 9.57156 11.5888 9.64304C11.5173 9.7145 11.5173 9.83051 11.5888 9.90197L11.7784 10.0916L11.5888 10.2812C11.5173 10.3526 11.5173 10.4687 11.5888 10.5401C11.6603 10.6116 11.7763 10.6116 11.8477 10.5401L12.0373 10.3505L12.2269 10.5401C12.2984 10.6116 12.4144 10.6116 12.4859 10.5401C12.5573 10.4687 12.5573 10.3526 12.4859 10.2812L12.2963 10.0916L12.4859 9.90197C12.5573 9.83051 12.5573 9.7145 12.4859 9.64304C12.4144 9.57156 12.2984 9.57156 12.2269 9.64304L12.0373 9.83262ZM2.70808 9.83262L2.51847 9.64304C2.44701 9.57156 2.331 9.57156 2.25954 9.64304C2.18806 9.7145 2.18806 9.83051 2.25954 9.90197L2.44912 10.0916L2.25954 10.2812C2.18806 10.3526 2.18806 10.4687 2.25954 10.5401C2.331 10.6116 2.44701 10.6116 2.51847 10.5401L2.70808 10.3505L2.89766 10.5401C2.96911 10.6116 3.08516 10.6116 3.15661 10.5401C3.22807 10.4687 3.22807 10.3526 3.15661 10.2812L2.96703 10.0916L3.15661 9.90197C3.22807 9.83051 3.22807 9.7145 3.15661 9.64304C3.08516 9.57156 2.96911 9.57156 2.89766 9.64304L2.70808 9.83262ZM7.3727 9.83262L7.18312 9.64304C7.11166 9.57156 6.99562 9.57156 6.92416 9.64304C6.85271 9.7145 6.85271 9.83051 6.92416 9.90197L7.11374 10.0916L6.92416 10.2812C6.85271 10.3526 6.85271 10.4687 6.92416 10.5401C6.99562 10.6116 7.11166 10.6116 7.18312 10.5401L7.3727 10.3505L7.56231 10.5401C7.63376 10.6116 7.74978 10.6116 7.82123 10.5401C7.89272 10.4687 7.89272 10.3526 7.82123 10.2812L7.63165 10.0916L7.82123 9.90197C7.89272 9.83051 7.89272 9.7145 7.82123 9.64304C7.74978 9.57156 7.63376 9.57156 7.56231 9.64304L7.3727 9.83262ZM11.3514 6.09405L11.1618 5.90447C11.0903 5.83302 10.9743 5.83302 10.9028 5.90447C10.8314 5.97593 10.8314 6.09194 10.9028 6.16343L11.0924 6.35301L10.9028 6.54259C10.8314 6.61404 10.8314 6.73009 10.9028 6.80154C10.9743 6.873 11.0903 6.873 11.1618 6.80154L11.3514 6.61196L11.5409 6.80154C11.6124 6.873 11.7284 6.873 11.7999 6.80154C11.8713 6.73009 11.8713 6.61404 11.7999 6.54259L11.6103 6.35301L11.7999 6.16343C11.8713 6.09194 11.8713 5.97593 11.7999 5.90447C11.7284 5.83302 11.6124 5.83302 11.5409 5.90447L11.3514 6.09405ZM7.3727 6.09405L7.18312 5.90447C7.11166 5.83302 6.99562 5.83302 6.92416 5.90447C6.85271 5.97593 6.85271 6.09194 6.92416 6.16343L7.11374 6.35301L6.92416 6.54259C6.85271 6.61404 6.85271 6.73009 6.92416 6.80154C6.99562 6.873 7.11166 6.873 7.18312 6.80154L7.3727 6.61196L7.56231 6.80154C7.63376 6.873 7.74978 6.873 7.82123 6.80154C7.89272 6.73009 7.89272 6.61404 7.82123 6.54259L7.63165 6.35301L7.82123 6.16343C7.89272 6.09194 7.89272 5.97593 7.82123 5.90447C7.74978 5.83302 7.63376 5.83302 7.56231 5.90447L7.3727 6.09405ZM3.39403 6.09405L3.20445 5.90447C3.133 5.83302 3.01695 5.83302 2.9455 5.90447C2.87404 5.97593 2.87404 6.09194 2.9455 6.16343L3.13511 6.35301L2.9455 6.54259C2.87404 6.61404 2.87404 6.73009 2.9455 6.80154C3.01695 6.873 3.133 6.873 3.20445 6.80154L3.39403 6.61196L3.58364 6.80154C3.6551 6.873 3.77111 6.873 3.8426 6.80154C3.91405 6.73009 3.91405 6.61404 3.8426 6.54259L3.65299 6.35301L3.8426 6.16343C3.91405 6.09194 3.91405 5.97593 3.8426 5.90447C3.77111 5.83302 3.6551 5.83302 3.58364 5.90447L3.39403 6.09405ZM10.7494 2.61443L10.5598 2.80404C10.4884 2.8755 10.4884 2.99151 10.5598 3.06297C10.6313 3.13445 10.7473 3.13445 10.8188 3.06297L11.0084 2.87339L11.198 3.06297C11.2694 3.13445 11.3855 3.13445 11.4569 3.06297C11.5284 2.99151 11.5284 2.8755 11.4569 2.80404L11.2673 2.61443L11.4569 2.42485C11.5284 2.3534 11.5284 2.23735 11.4569 2.1659C11.3855 2.09444 11.2694 2.09444 11.198 2.1659L11.0084 2.35548L10.8188 2.1659C10.7473 2.09444 10.6313 2.09444 10.5598 2.1659C10.4884 2.23735 10.4884 2.3534 10.5598 2.42485L10.7494 2.61443ZM7.3727 2.35548L7.18312 2.1659C7.11166 2.09444 6.99562 2.09444 6.92416 2.1659C6.85271 2.23735 6.85271 2.3534 6.92416 2.42485L7.11374 2.61443L6.92416 2.80404C6.85271 2.8755 6.85271 2.99151 6.92416 3.06297C6.99562 3.13445 7.11166 3.13445 7.18312 3.06297L7.3727 2.87339L7.56231 3.06297C7.63376 3.13445 7.74978 3.13445 7.82123 3.06297C7.89272 2.99151 7.89272 2.8755 7.82123 2.80404L7.63165 2.61443L7.82123 2.42485C7.89272 2.3534 7.89272 2.23735 7.82123 2.1659C7.74978 2.09444 7.63376 2.09444 7.56231 2.1659L7.3727 2.35548ZM3.47809 2.61443L3.28851 2.80404C3.21702 2.8755 3.21702 2.99151 3.28851 3.06297C3.35996 3.13445 3.47598 3.13445 3.54743 3.06297L3.73704 2.87339L3.92662 3.06297C3.99808 3.13445 4.11412 3.13445 4.18558 3.06297C4.25703 2.99151 4.25703 2.8755 4.18558 2.80404L3.996 2.61443L4.18558 2.42485C4.25703 2.3534 4.25703 2.23735 4.18558 2.1659C4.11412 2.09444 3.99808 2.09444 3.92662 2.1659L3.73704 2.35548L3.54743 2.1659C3.47598 2.09444 3.35996 2.09444 3.28851 2.1659C3.21702 2.23735 3.21702 2.3534 3.28851 2.42485L3.47809 2.61443Z" stroke="#1B88D7" stroke-width="0.3" mask="url(#path-1-outside-1_2_2184)"/>
</g>
<defs>
<clipPath id="clip0_2_2184">
<rect width="15" height="15" fill="white" transform="translate(0 0.000488281)"/>
</clipPath>
</defs>
</svg>
