<svg width="50" height="50" viewBox="0 0 50 50" fill="none" xmlns="http://www.w3.org/2000/svg">
<mask id="mask0_2_2056" style="mask-type:luminance" maskUnits="userSpaceOnUse" x="0" y="0" width="50" height="50">
<path d="M48.9999 49V1.00014H1V49H48.9999Z" fill="white" stroke="white" stroke-width="2"/>
</mask>
<g mask="url(#mask0_2_2056)">
<path d="M47.2088 27.4153C41.6897 24.4824 35.1174 25.5249 30.7725 29.5386" stroke="#1B88D7" stroke-width="2" stroke-miterlimit="10" stroke-linecap="round" stroke-linejoin="round"/>
<path d="M21.7785 4.88311C24.2936 9.6162 23.5068 15.2241 20.2256 19.0674" stroke="#1B88D7" stroke-width="2" stroke-miterlimit="10" stroke-linecap="round" stroke-linejoin="round"/>
<path d="M35.3424 37.0371L2.88833 48.9337C1.75298 49.3499 0.65015 48.2472 1.06636 47.1118L12.9629 14.6576C13.3199 13.6837 14.5668 13.4088 15.3003 14.1423L35.8578 34.6998C36.5913 35.4333 36.3164 36.6801 35.3424 37.0371Z" stroke="#1B88D7" stroke-width="2" stroke-miterlimit="10" stroke-linecap="round" stroke-linejoin="round"/>
<path d="M10.6836 21.3826L16.5431 27.2422" stroke="#1B88D7" stroke-width="2" stroke-miterlimit="10" stroke-linecap="round" stroke-linejoin="round"/>
<path d="M8.99121 26.2119L23.788 41.0087" stroke="#1B88D7" stroke-width="2" stroke-miterlimit="10" stroke-linecap="round" stroke-linejoin="round"/>
<path d="M5.77441 34.8524L15.1471 44.2252" stroke="#1B88D7" stroke-width="2" stroke-miterlimit="10" stroke-linecap="round" stroke-linejoin="round"/>
<path d="M3.86816 39.4676L10.5321 46.1316" stroke="#1B88D7" stroke-width="2" stroke-miterlimit="10" stroke-linecap="round" stroke-linejoin="round"/>
<path d="M29.4521 6.81696C29.4521 5.45846 30.5534 4.3572 31.9119 4.3572C33.2704 4.3572 34.3717 3.25593 34.3717 1.89744" stroke="#1B88D7" stroke-width="2" stroke-miterlimit="10" stroke-linecap="round" stroke-linejoin="round"/>
<path d="M43.262 10.8899C41.8413 10.8899 40.6896 12.0416 40.6896 13.4623C40.6896 14.883 39.5379 16.0347 38.1173 16.0347" stroke="#1B88D7" stroke-width="2" stroke-miterlimit="10" stroke-linecap="round" stroke-linejoin="round"/>
<path d="M49.0234 18.8951C49.0234 20.0816 48.0615 21.0435 46.875 21.0435C45.6885 21.0435 44.7266 20.0816 44.7266 18.8951C44.7266 17.7086 45.6885 16.7467 46.875 16.7467C48.0615 16.7467 49.0234 17.7086 49.0234 18.8951Z" stroke="#1B88D7" stroke-width="2" stroke-miterlimit="10" stroke-linecap="round" stroke-linejoin="round"/>
<path d="M32.9209 13.4625C32.9209 14.649 31.959 15.6109 30.7725 15.6109C29.5859 15.6109 28.624 14.649 28.624 13.4625C28.624 12.2759 29.5859 11.314 30.7725 11.314C31.959 11.314 32.9209 12.2759 32.9209 13.4625Z" stroke="#1B88D7" stroke-width="2" stroke-miterlimit="10" stroke-linecap="round" stroke-linejoin="round"/>
<path d="M14.6484 3.12513C14.6484 4.31165 13.6865 5.27356 12.5 5.27356C11.3135 5.27356 10.3516 4.31165 10.3516 3.12513C10.3516 1.93861 11.3135 0.976697 12.5 0.976697C13.6865 0.976697 14.6484 1.93861 14.6484 3.12513Z" stroke="#1B88D7" stroke-width="2" stroke-miterlimit="10" stroke-linecap="round" stroke-linejoin="round"/>
<path d="M44.4197 35.8943L43.499 34.9736" stroke="#1B88D7" stroke-width="2" stroke-miterlimit="10" stroke-linecap="round" stroke-linejoin="round"/>
<path d="M48.1025 39.5772L49.0232 40.4979" stroke="#1B88D7" stroke-width="2" stroke-miterlimit="10" stroke-linecap="round" stroke-linejoin="round"/>
<path d="M48.1025 35.8943L49.0232 34.9736" stroke="#1B88D7" stroke-width="2" stroke-miterlimit="10" stroke-linecap="round" stroke-linejoin="round"/>
<path d="M44.4197 39.5772L43.499 40.4979" stroke="#1B88D7" stroke-width="2" stroke-miterlimit="10" stroke-linecap="round" stroke-linejoin="round"/>
<path d="M48.1025 1.8974L49.0232 0.976699" stroke="#1B88D7" stroke-width="2" stroke-miterlimit="10" stroke-linecap="round" stroke-linejoin="round"/>
<path d="M44.4197 5.58022L43.499 6.50092" stroke="#1B88D7" stroke-width="2" stroke-miterlimit="10" stroke-linecap="round" stroke-linejoin="round"/>
<path d="M48.1025 5.58022L49.0232 6.50092" stroke="#1B88D7" stroke-width="2" stroke-miterlimit="10" stroke-linecap="round" stroke-linejoin="round"/>
<path d="M44.4197 1.8974L43.499 0.976699" stroke="#1B88D7" stroke-width="2" stroke-miterlimit="10" stroke-linecap="round" stroke-linejoin="round"/>
<path d="M22.7578 33.457L28.6174 39.3165" stroke="#1B88D7" stroke-width="2" stroke-miterlimit="10" stroke-linecap="round" stroke-linejoin="round"/>
<path d="M27.8193 26.6612L31.0867 23.3938" stroke="#1B88D7" stroke-width="2" stroke-miterlimit="10" stroke-linecap="round" stroke-linejoin="round"/>
<path d="M34.5889 19.8912L33.8809 20.5992" stroke="#1B88D7" stroke-width="2" stroke-miterlimit="10" stroke-linecap="round" stroke-linejoin="round"/>
</g>
</svg>
