<svg width="24" height="24" viewBox="0 0 24 24" fill="none" xmlns="http://www.w3.org/2000/svg">
<path d="M11.8133 0.209431L11.8133 0.209427C11.9462 0.159569 12.0812 0.166302 12.1982 0.213945L12.1982 0.214008L12.2028 0.215712L23.4799 4.44462L23.5413 4.28076L23.4799 4.44462C23.5811 4.48256 23.6683 4.55048 23.7298 4.6393C23.7914 4.72812 23.8244 4.83361 23.8243 4.94167V19.059C23.8243 19.2987 23.6698 19.4913 23.4643 19.562L23.4643 19.5619L23.4597 19.5636L12.1861 23.7912C12.1861 23.7912 12.1861 23.7912 12.1861 23.7912C12.0659 23.8363 11.9335 23.8363 11.8133 23.7912C11.8133 23.7912 11.8133 23.7912 11.8133 23.7912L0.539607 19.5636L0.53963 19.5635L0.535041 19.562C0.329512 19.4913 0.175 19.2987 0.175 19.059V4.94169C0.175 4.94169 0.175 4.94169 0.175 4.94168C0.175007 4.83362 0.207988 4.72813 0.269539 4.63931C0.331091 4.55049 0.418282 4.48257 0.519463 4.44462L11.8133 0.209431ZM22.5262 18.2043L22.7626 18.293V18.0404V8.96017V8.8389L22.6491 8.79632L12.767 5.09052L12.5305 5.00185V5.25438V14.3346V14.4559L12.6441 14.4985L14.7616 15.2926L14.9981 15.3812V15.1287V8.7357C14.9981 8.36504 15.3683 8.10849 15.7153 8.23863L15.7153 8.23863L19.2447 9.56212C19.3458 9.60006 19.433 9.66798 19.4946 9.75679C19.5561 9.84562 19.5891 9.95111 19.5891 10.0592V16.9816V17.1566H19.7325L22.5262 18.2043ZM16.2963 9.59041L16.0599 9.50174V9.75426V15.6581V15.7794L16.1734 15.822L18.291 16.6161L18.5275 16.7047V16.4522V10.5484V10.4271L18.4139 10.3845L16.2963 9.59041ZM2.6547 18.8951L2.21775 19.059L2.6547 19.2229L11.9382 22.7042L11.9997 22.7272L12.0611 22.7042L21.3447 19.2229L21.7816 19.059L21.3447 18.8951L12.0611 15.4138L11.9997 15.3908L11.9382 15.4138L2.6547 18.8951ZM11.4688 5.25438V5.00185L11.2324 5.09052L1.35025 8.79632L1.2367 8.8389V8.96017V18.0404V18.293L1.47315 18.2043L11.3553 14.4985L11.4688 14.4559V14.3346V5.25438ZM12.5306 3.74668V3.86796L12.6441 3.91054L22.5262 7.61634L22.7627 7.705V7.45248V5.43086V5.30958L22.6491 5.267L12.767 1.5612L12.5306 1.47254V1.72506V3.74668ZM1.2367 7.45248V7.705L1.47315 7.61634L11.3553 3.91054L11.4688 3.86796V3.74668V1.72506V1.47254L11.2324 1.5612L1.35025 5.267L1.2367 5.30958V5.43086V7.45248ZM3.71569 14.9679L3.71568 14.9679C3.36867 15.0981 2.99844 14.8415 2.99844 14.4708V10.9415C2.99845 10.8335 3.03143 10.728 3.09298 10.6392C3.15453 10.5503 3.24173 10.4824 3.34291 10.4445L8.98983 8.3269L8.92838 8.16304L8.98983 8.3269C9.33689 8.19675 9.70708 8.4533 9.70708 8.82396V12.3533C9.70707 12.4613 9.67409 12.5668 9.61254 12.6556C9.55099 12.7445 9.4638 12.8124 9.36261 12.8503L3.71569 14.9679ZM8.53183 12.028L8.64538 11.9854V11.8641V9.84248V9.58996L8.40893 9.67862L4.17374 11.2668L4.06019 11.3094V11.4307V13.4523V13.7048L4.29664 13.6161L8.53183 12.028Z" fill="#B1B6B9" stroke="white" stroke-width="0.35"/>
</svg>
