<svg width="50" height="49" viewBox="0 0 50 49" fill="none" xmlns="http://www.w3.org/2000/svg">
<path d="M18.1615 17.45C18.714 15.8794 19.8045 14.5551 21.2399 13.7115C22.6753 12.8679 24.3629 12.5595 26.0039 12.841C27.6448 13.1224 29.1332 13.9756 30.2054 15.2493C31.2776 16.523 31.8645 18.1351 31.862 19.8C31.862 24.5 24.812 26.85 24.812 26.85V31.0423M25 36.25H25.0235M48.5 24.5C48.5 37.4787 37.9787 48 25 48C12.0213 48 1.5 37.4787 1.5 24.5C1.5 11.5213 12.0213 1 25 1C37.9787 1 48.5 11.5213 48.5 24.5Z" stroke="#1B88D7" stroke-width="2" stroke-linecap="round" stroke-linejoin="round"/>
</svg>
