<svg width="13" height="14" viewBox="0 0 13 14" fill="none" xmlns="http://www.w3.org/2000/svg">
<path d="M11.8125 5.95799V2.43799C11.8118 1.85803 11.5812 1.30202 11.1711 0.891923C10.761 0.481831 10.205 0.25115 9.625 0.250488H3.375C2.79504 0.25115 2.23903 0.481831 1.82893 0.891923C1.41884 1.30202 1.18816 1.85803 1.1875 2.43799V5.95799C0.898311 6.15907 0.662028 6.42708 0.498788 6.7392C0.335549 7.05131 0.250195 7.39826 0.25 7.75049V12.438C0.25 12.6038 0.315848 12.7627 0.433058 12.8799C0.550268 12.9971 0.70924 13.063 0.875 13.063H2.125C2.29076 13.063 2.44973 12.9971 2.56694 12.8799C2.68415 12.7627 2.75 12.6038 2.75 12.438V11.5005H10.25V12.438C10.25 12.6038 10.3158 12.7627 10.4331 12.8799C10.5503 12.9971 10.7092 13.063 10.875 13.063H12.125C12.2908 13.063 12.4497 12.9971 12.5669 12.8799C12.6842 12.7627 12.75 12.6038 12.75 12.438V7.75049C12.7498 7.39826 12.6645 7.05131 12.5012 6.7392C12.338 6.42708 12.1017 6.15907 11.8125 5.95799ZM1.8125 2.43799C1.813 2.02374 1.97778 1.6266 2.27069 1.33368C2.56361 1.04076 2.96075 0.875985 3.375 0.875488H9.625C10.0392 0.875985 10.4364 1.04076 10.7293 1.33368C11.0222 1.6266 11.187 2.02374 11.1875 2.43799V5.65674C10.9848 5.59521 10.7743 5.56362 10.5625 5.56299H9.625V4.93799C9.6245 4.52374 9.45972 4.1266 9.16681 3.83368C8.87389 3.54076 8.47675 3.37598 8.0625 3.37549H4.9375C4.52325 3.37598 4.12611 3.54076 3.83319 3.83368C3.54028 4.1266 3.3755 4.52374 3.375 4.93799V5.56299H2.4375C2.22571 5.56362 2.01515 5.59521 1.8125 5.65674V2.43799ZM9 5.56299H4V4.93799C4 4.68935 4.09877 4.45089 4.27459 4.27508C4.4504 4.09926 4.68886 4.00049 4.9375 4.00049H8.0625C8.31114 4.00049 8.5496 4.09926 8.72541 4.27508C8.90123 4.45089 9 4.68935 9 4.93799V5.56299ZM0.875 7.75049C0.875496 7.33624 1.04028 6.9391 1.33319 6.64618C1.62611 6.35326 2.02325 6.18849 2.4375 6.18799H10.5625C10.9767 6.18849 11.3739 6.35326 11.6668 6.64618C11.9597 6.9391 12.1245 7.33624 12.125 7.75049V9.00049H0.875V7.75049ZM2.125 12.438H0.875V11.5005H2.125V12.438ZM0.875 10.8755V9.62549H12.125V10.8755H0.875ZM12.125 12.438H10.875V11.5005H12.125V12.438Z" fill="#1B88D7"/>
</svg>
