<svg width="19" height="20" viewBox="0 0 19 20" fill="none" xmlns="http://www.w3.org/2000/svg">
<g clip-path="url(#clip0_2_2249)">
<path d="M12.7067 6.04184C12.7067 6.45616 13.0441 6.7935 13.4584 6.7935C14.3537 6.7935 15.0817 7.52149 15.0817 8.4168V9.6043C15.0817 9.84519 14.8868 10.0402 14.6459 10.0402C14.405 10.0402 14.21 9.84519 14.21 9.6043V8.4168C14.21 8.00249 13.8727 7.66515 13.4584 7.66515C12.563 7.66515 11.835 6.93715 11.835 6.04184C11.835 5.62753 11.4977 5.29019 11.0834 5.29019L9.89591 5.29019L9.89588 5.29019M12.7067 6.04184L9.50004 4.85434C9.5 4.90633 9.51022 4.95782 9.5301 5.00587C9.54998 5.05391 9.57914 5.09756 9.6159 5.13432C9.65267 5.17109 9.69632 5.20024 9.74436 5.22013C9.7924 5.24001 9.84389 5.25022 9.89588 5.25019V5.29019M12.7067 6.04184C12.7067 5.14653 11.9787 4.4185 11.0834 4.4185M12.7067 6.04184L11.0834 4.4185M9.89588 5.29019C9.83864 5.29022 9.78196 5.27897 9.72906 5.25709C9.67616 5.23519 9.6281 5.20309 9.58762 5.16261C9.54714 5.12213 9.51503 5.07406 9.49314 5.02116C9.47125 4.96827 9.46 4.91158 9.46004 4.85434M9.89588 5.29019L9.46004 4.85434M9.46004 4.85434C9.46 4.7971 9.47125 4.74041 9.49314 4.68752C9.51503 4.63462 9.54714 4.58656 9.58762 4.54608C9.6281 4.50559 9.67616 4.47349 9.72906 4.4516C9.78196 4.42971 9.83864 4.41846 9.89588 4.4185L9.46004 4.85434ZM11.0834 4.4185H9.8959H11.0834ZM12.2709 9.1685H13.0625C13.1198 9.16846 13.1765 9.17971 13.2293 9.20159C13.2822 9.22348 13.3303 9.25558 13.3708 9.29606C13.4113 9.33654 13.4434 9.3846 13.4653 9.43749L12.2709 9.1685ZM12.2709 9.1685C12.0746 9.1685 11.915 9.00898 11.915 8.81265M12.2709 9.1685L11.915 8.81265M11.915 8.81265C11.915 8.13573 11.3645 7.58515 10.6875 7.58515M11.915 8.81265L10.6875 7.58515M10.6875 7.58515C10.4912 7.58515 10.3317 7.42564 10.3317 7.2293M10.6875 7.58515L10.3317 7.2293M10.3317 7.2293L10.3317 6.43768M10.3317 7.2293L10.3317 6.43768M10.3317 6.43768C10.3317 6.43767 10.3317 6.43766 10.3317 6.43765C10.3317 6.38041 10.3205 6.32372 10.2986 6.27083C10.2767 6.21793 10.2446 6.16987 10.2041 6.12939C10.1636 6.0889 10.1156 6.0568 10.0627 6.03491C10.0098 6.01302 9.95307 6.00177 9.89582 6.0018L9.89585 6.0418M10.3317 6.43768L13.4283 9.45279C13.4084 9.40476 13.3793 9.36111 13.3425 9.32435C13.3057 9.28759 13.2621 9.25843 13.2141 9.23855C13.166 9.21868 13.1145 9.20846 13.0625 9.2085H12.2709C12.0525 9.2085 11.875 9.03108 11.875 8.81265C11.875 8.15782 11.3424 7.62515 10.6875 7.62515C10.4691 7.62515 10.2917 7.44773 10.2917 7.2293V6.43765M10.3317 6.43768L10.2917 6.43765M10.3317 6.43768L10.2917 6.43765M9.89585 6.0418C9.84385 6.04177 9.79236 6.05199 9.74432 6.07187C9.69628 6.09175 9.65263 6.1209 9.61586 6.15767C9.5791 6.19443 9.54994 6.23808 9.53006 6.28613C9.51018 6.33417 9.49997 6.38566 9.5 6.43765M9.89585 6.0418L9.89587 6.0018C9.83862 6.00177 9.78193 6.01302 9.72903 6.03491C9.67613 6.0568 9.62806 6.0889 9.58758 6.12939C9.5471 6.16987 9.51499 6.21793 9.4931 6.27083C9.47122 6.32372 9.45997 6.38041 9.46 6.43765M9.89585 6.0418C9.94784 6.04177 9.99933 6.05199 10.0474 6.07187C10.0954 6.09175 10.1391 6.1209 10.1758 6.15767C10.2126 6.19443 10.2417 6.23808 10.2616 6.28613C10.2815 6.33417 10.2917 6.38566 10.2917 6.43765M9.5 6.43765H9.46M9.5 6.43765L9.46 6.43768M9.5 6.43765V7.2293C9.5 7.88414 10.0327 8.4168 10.6875 8.4168C10.9059 8.4168 11.0833 8.59422 11.0833 8.81265C11.0833 9.46748 11.616 10.0002 12.2708 10.0002H13.0625L9.46 6.43768M9.46 6.43765C9.46 6.43766 9.46 6.43767 9.46 6.43768M9.46 6.43765L9.46 6.43768M9.46 6.43768L9.46 7.2293C9.46 7.90623 10.0106 8.4568 10.6875 8.4568C10.8838 8.4568 11.0433 8.61632 11.0433 8.81265C11.0433 9.48957 11.5939 10.0402 12.2708 10.0402H13.0625L9.46 6.43768ZM13.4653 9.77112C13.4872 9.71823 13.4984 9.66154 13.4984 9.6043L13.2294 10.007C13.2823 9.98516 13.3303 9.95305 13.3708 9.91257C13.4113 9.87209 13.4434 9.82402 13.4653 9.77112Z" fill="#1B88D7" stroke="#1B88D7" stroke-width="0.08"/>
<path d="M0.831654 10.0005C0.831654 14.7802 4.72029 18.6688 9.5 18.6688C11.7332 18.6688 13.7652 17.8128 15.3037 16.4205L12.0904 13.2072H4.35418H4.35415L0.831654 10.0005ZM0.831654 10.0005C0.831654 7.76733 1.68762 5.73526 3.08001 4.19678M0.831654 10.0005L3.08001 4.19678M3.08001 4.19678L9.63537 10.7521H4.35418C4.29693 10.7521 4.24023 10.7634 4.18733 10.7852C4.13444 10.8071 4.08637 10.8392 4.04589 10.8797C4.00541 10.9202 3.9733 10.9683 3.95141 11.0212L3.08001 4.19678ZM3.6963 3.58049L10.868 10.7521H14.6458H14.6458L3.6963 3.58049ZM3.6963 3.58049C5.23478 2.18815 7.26684 1.33214 9.5 1.33214C14.2797 1.33214 18.1683 5.22078 18.1683 10.0005C18.1683 12.2337 17.3123 14.2657 15.92 15.8042L13.323 13.2072H14.6458C14.7031 13.2072 14.7598 13.196 14.8127 13.1741C14.8656 13.1522 14.9136 13.1201 14.9541 13.0796C14.9946 13.0391 15.0267 12.9911 15.0486 12.9382L3.6963 3.58049ZM9.5 0.460488C4.2397 0.460488 -0.04 4.74019 -0.04 10.0005C-0.04 15.2608 4.2397 19.5405 9.5 19.5405C14.7603 19.5405 19.04 15.2608 19.04 10.0005C19.04 4.74019 14.7603 0.460488 9.5 0.460488ZM3.91831 11.188V12.7713V11.188ZM4.79 11.6238H10.507L11.2187 12.3355H4.79V11.6238ZM12.4513 12.3355L11.7396 11.6238H12.6267V12.3355H12.4513ZM15.0817 12.7713V11.188V12.7713ZM13.4983 12.3355V11.6238H14.21V12.3355H13.4983Z" fill="#1B88D7" stroke="#1B88D7" stroke-width="0.08"/>
</g>
<defs>
<clipPath id="clip0_2_2249">
<rect width="19" height="19" fill="white" transform="translate(0 0.500488)"/>
</clipPath>
</defs>
</svg>
