<svg width="40" height="40" viewBox="0 0 40 40" fill="none" xmlns="http://www.w3.org/2000/svg">
<g clip-path="url(#clip0_2_233)">
<path d="M11.0513 2.37264H20.0311C20.1543 2.37264 20.2729 2.42025 20.3607 2.50564C20.4485 2.59109 20.4982 2.70743 20.4982 2.82918V11.829C20.4982 11.8895 20.4859 11.9493 20.4621 12.005C20.4383 12.0607 20.4034 12.1112 20.3597 12.1535C20.3159 12.1958 20.2641 12.2292 20.2072 12.2518C20.1505 12.2744 20.0897 12.2859 20.0285 12.2855H20.0287V12.2105L20.0283 12.2855L6.2892 12.2855H6.28894V12.2105L11.0513 2.37264ZM11.0513 2.37264H11.0511V2.44764L11.0513 2.37264ZM5.8594 12.0115L5.85974 12.0123L10.5844 2.88007C10.5861 2.8954 10.6833 3.78491 10.5478 4.87423C10.4119 5.96625 10.0441 7.24242 9.12945 8.04808C8.2381 8.83292 6.93287 9.06005 5.2199 8.70329C5.13664 8.68524 5.04986 8.69008 4.9692 8.7173C4.88854 8.74453 4.81698 8.79315 4.76268 8.85799C4.70793 8.92223 4.67218 9.00007 4.65956 9.08309C4.64692 9.16625 4.65803 9.25116 4.69158 9.32845L4.69161 9.32853L5.8594 12.0115ZM9.75265 8.731L9.75268 8.73104L9.75489 8.7291C10.6538 7.93575 11.1133 6.82223 11.3423 5.77825C11.5607 4.78243 11.5708 3.84295 11.5483 3.28877H19.5616V11.3724H6.59764L5.88846 9.74699C6.54556 9.85645 7.2195 9.8306 7.86664 9.67049C8.55965 9.49904 9.20426 9.17799 9.75265 8.731Z" fill="#1B88D7" stroke="#1B88D7" stroke-width="0.15"/>
<path d="M29.3563 2.52708C29.3125 2.47935 29.259 2.44125 29.1993 2.41517C29.1395 2.38908 29.0749 2.37556 29.0096 2.37544H29.0094H20.0286C19.9054 2.37544 19.7868 2.42305 19.699 2.50844C19.6112 2.59389 19.5615 2.71023 19.5615 2.83198V11.8287C19.5615 11.9505 19.6112 12.0668 19.699 12.1523C19.7868 12.2377 19.9054 12.2853 20.0286 12.2853L33.7681 12.2853L33.7684 12.2103V12.2853H33.7683C33.8592 12.2856 33.9484 12.2601 34.0248 12.2115C34.1013 12.1629 34.1618 12.0933 34.1985 12.0111L34.1987 12.0105L35.3657 9.33138C35.3657 9.33137 35.3657 9.33136 35.3657 9.33135C35.3994 9.25414 35.4107 9.16929 35.3982 9.08615C35.3857 9.00309 35.3501 8.92517 35.2955 8.86083M29.3563 2.52708C29.4004 2.57482 29.4337 2.6312 29.454 2.69259C29.4743 2.75401 29.481 2.81897 29.4737 2.88317L29.4736 2.88447L29.4735 2.88467C29.4734 2.88551 29.473 2.88907 29.4723 2.89589L29.4692 2.9282C29.4667 2.95608 29.4633 2.99636 29.4597 3.04773C29.4525 3.15046 29.4445 3.29742 29.4409 3.47802C29.4336 3.83937 29.4436 4.33466 29.5118 4.87947C29.6484 5.97251 30.0168 7.24902 30.9302 8.05238C31.8208 8.83496 33.1284 9.06208 34.8382 8.70609C34.9215 8.68804 35.0083 8.69288 35.0889 8.7201C35.1696 8.74734 35.2412 8.79597 35.2955 8.86083M29.3563 2.52708C29.3563 2.52706 29.3563 2.52703 29.3563 2.527L29.3012 2.57787L29.3564 2.52717C29.3564 2.52714 29.3564 2.52711 29.3563 2.52708ZM35.2955 8.86083C35.2954 8.86075 35.2954 8.86067 35.2953 8.86059L35.2382 8.90917L35.2957 8.86106C35.2956 8.86098 35.2956 8.8609 35.2955 8.86083ZM30.3017 8.72583L30.3017 8.72587L30.304 8.72773C30.8526 9.17422 31.4972 9.49496 32.1901 9.66638C32.8373 9.82648 33.5112 9.85256 34.1683 9.74354L33.4597 11.3722H20.4958V3.28852H28.5091C28.4869 3.83998 28.4963 4.77855 28.7141 5.77414C28.9424 6.81812 29.4016 7.93245 30.3017 8.72583ZM15.2994 27.4569L15.3006 27.4569C15.4225 27.455 15.5392 27.4065 15.6254 27.3213C15.7116 27.2361 15.7603 27.1208 15.7603 27.0003V20.1738C15.7603 20.052 15.7106 19.9357 15.6227 19.8503C15.535 19.7649 15.4164 19.7173 15.2931 19.7173H7.37196C7.37195 19.7173 7.37194 19.7173 7.37193 19.7173C7.25107 19.7172 7.13458 19.763 7.04724 19.8454C6.96017 19.9276 6.9089 20.0398 6.90487 20.1587C6.86569 20.7507 6.70673 21.3295 6.43703 21.8618C6.16744 22.3938 5.79249 22.869 5.33358 23.26C4.22585 24.1025 2.60229 24.3164 0.489569 23.8738L0.489479 23.8738C0.406239 23.8565 0.31971 23.8617 0.239247 23.8889C0.158771 23.9162 0.0872549 23.9645 0.0326316 24.0288L0.0898057 24.0774L0.0326308 24.0288C-0.0220068 24.0932 -0.0576167 24.1711 -0.0700666 24.2542C-0.0825176 24.3372 -0.0712848 24.422 -0.0376883 24.4991L1.1293 27.1829L1.12965 27.1836C1.16644 27.2657 1.22698 27.3351 1.30348 27.3835C1.37985 27.4319 1.46888 27.4573 1.55963 27.4569C1.55976 27.4569 1.55991 27.4569 1.56003 27.4569L15.2994 27.4569ZM5.91641 23.9725L5.91643 23.9725L5.91825 23.971C6.95321 23.1259 7.6236 21.9334 7.79723 20.6303H14.8323V26.5438H1.86837L1.15973 24.9165C3.13785 25.1878 4.73716 24.8752 5.91641 23.9725ZM39.5105 23.8738L39.5105 23.8738C37.3977 24.3156 35.7741 24.1024 34.6664 23.26C34.2071 22.8692 33.8317 22.3941 33.5617 21.862C33.2916 21.3297 33.1322 20.7508 33.0928 20.1585C33.0887 20.0398 33.0374 19.9275 32.9504 19.8454C32.8631 19.763 32.7466 19.7172 32.6257 19.7173H24.6982C24.575 19.7173 24.4564 19.7649 24.3686 19.8503C24.2808 19.9357 24.2311 20.052 24.2311 20.1738V27.0003C24.2311 27.1221 24.2808 27.2384 24.3686 27.3239C24.4564 27.4093 24.575 27.4569 24.6982 27.4569L38.4375 27.4569L38.438 27.3819V27.4569H38.4378C38.5296 27.4575 38.6196 27.4316 38.6966 27.3824C38.7737 27.333 38.8344 27.2624 38.8707 27.1791L40.0377 24.4991C40.0713 24.422 40.0825 24.3372 40.0701 24.2542C40.0576 24.1711 40.022 24.0932 39.9674 24.0288C39.9127 23.9645 39.8412 23.9162 39.7608 23.8889C39.6803 23.8617 39.5938 23.8565 39.5105 23.8738ZM34.0817 23.9718L34.0817 23.9718L34.0836 23.9733C35.2635 24.875 36.864 25.1914 38.84 24.9176L38.1293 26.5438H25.1654L25.1677 20.6311H32.2028C32.3764 21.9341 33.0468 23.1267 34.0817 23.9718Z" fill="#1B88D7" stroke="#1B88D7" stroke-width="0.15"/>
<path d="M15.2994 27.457H24.6982C24.8214 27.457 24.94 27.4094 25.0278 27.324C25.1156 27.2386 25.1653 27.1223 25.1653 27.0005V20.174C25.1653 20.0522 25.1156 19.9359 25.0278 19.8504C24.94 19.765 24.8214 19.7174 24.6982 19.7174H15.2994C15.1761 19.7174 15.0575 19.765 14.9698 19.8504C14.882 19.9359 14.8322 20.0522 14.8322 20.174V27.0005C14.8322 27.1223 14.882 27.2386 14.9698 27.324C15.0575 27.4094 15.1761 27.457 15.2994 27.457ZM24.231 20.6305V26.544H15.7665V20.6305H24.231Z" fill="#1B88D7" stroke="#1B88D7" stroke-width="0.15"/>
<path d="M9.34185 20.6305H30.6554C30.7787 20.6305 30.8973 20.5829 30.985 20.4975C31.0728 20.4121 31.1226 20.2958 31.1226 20.174V11.8289C31.1226 11.7072 31.0728 11.5908 30.985 11.5054C30.8973 11.42 30.7787 11.3724 30.6554 11.3724H9.34185C9.21861 11.3724 9.10001 11.42 9.01226 11.5054C8.92444 11.5908 8.87471 11.7072 8.87471 11.8289V20.174C8.87471 20.2958 8.92444 20.4121 9.01226 20.4975C9.10001 20.5829 9.21861 20.6305 9.34185 20.6305ZM30.1883 12.2855V19.7175H9.80899V12.2855H30.1883Z" fill="#1B88D7" stroke="#1B88D7" stroke-width="0.15"/>
<path d="M11.2587 18.6717H15.8075C15.9307 18.6717 16.0493 18.6241 16.1371 18.5387C16.2249 18.4532 16.2746 18.3369 16.2746 18.2151V13.7893C16.2746 13.6675 16.2249 13.5512 16.1371 13.4657C16.0493 13.3803 15.9307 13.3327 15.8075 13.3327H11.2587C11.1354 13.3327 11.0168 13.3803 10.9291 13.4657C10.8412 13.5512 10.7915 13.6675 10.7915 13.7893V18.2151C10.7915 18.3369 10.8412 18.4532 10.9291 18.5387C11.0168 18.6241 11.1354 18.6717 11.2587 18.6717ZM15.3403 14.2458V17.7586H11.7258V14.2458H15.3403ZM17.7243 18.6717H22.2731C22.3963 18.6717 22.5149 18.6241 22.6027 18.5387C22.6905 18.4532 22.7402 18.3369 22.7402 18.2151V13.7893C22.7402 13.6675 22.6905 13.5512 22.6027 13.4657C22.5149 13.3803 22.3963 13.3327 22.2731 13.3327H17.7243C17.601 13.3327 17.4824 13.3803 17.3947 13.4657C17.3068 13.5512 17.2571 13.6675 17.2571 13.7893V18.2151C17.2571 18.3369 17.3068 18.4532 17.3947 18.5387C17.4824 18.6241 17.601 18.6717 17.7243 18.6717ZM21.8059 14.2458V17.7586H18.1914V14.2458H21.8059ZM24.1906 18.6717H28.7395C28.8627 18.6717 28.9813 18.6241 29.069 18.5387C29.1569 18.4532 29.2066 18.3369 29.2066 18.2151V13.7893C29.2066 13.6675 29.1569 13.5512 29.069 13.4657C28.9813 13.3803 28.8627 13.3327 28.7395 13.3327H24.1906C24.0674 13.3327 23.9488 13.3803 23.861 13.4657C23.7732 13.5512 23.7235 13.6675 23.7235 13.7893V18.2151C23.7235 18.3369 23.7732 18.4532 23.861 18.5387C23.9488 18.6241 24.0674 18.6717 24.1906 18.6717ZM28.2723 14.2458V17.7586H24.6578V14.2458H28.2723ZM5.56792 37.6274H34.4294C34.5526 37.6274 34.6712 37.5798 34.759 37.4944C34.8468 37.409 34.8965 37.2926 34.8965 37.1709V27.0005C34.8965 26.8788 34.8468 26.7624 34.759 26.677C34.6712 26.5916 34.5526 26.544 34.4294 26.544H5.56792C5.44468 26.544 5.32609 26.5916 5.23833 26.677C5.15051 26.7624 5.10078 26.8788 5.10078 27.0005V37.1709C5.10078 37.2926 5.15051 37.409 5.23833 37.4944C5.32609 37.5798 5.44468 37.6274 5.56792 37.6274ZM33.9623 27.457V36.7143H6.03506V27.457H33.9623Z" fill="#1B88D7" stroke="#1B88D7" stroke-width="0.15"/>
<path d="M9.24321 34.824H13.792C13.9153 34.824 14.0339 34.7764 14.1216 34.691C14.2094 34.6055 14.2592 34.4892 14.2592 34.3674V29.9416C14.2592 29.8198 14.2094 29.7035 14.1216 29.618C14.0339 29.5326 13.9153 29.485 13.792 29.485H9.24321C9.11997 29.485 9.00138 29.5326 8.91363 29.618C8.82581 29.7035 8.77607 29.8198 8.77607 29.9416V34.3674C8.77607 34.4892 8.82581 34.6055 8.91363 34.691C9.00138 34.7764 9.11997 34.824 9.24321 34.824ZM13.3249 30.3981V33.9109H9.71035V30.3981H13.3249ZM17.7244 37.6276H22.2732C22.3965 37.6276 22.5151 37.5799 22.6028 37.4946C22.6906 37.4091 22.7404 37.2928 22.7404 37.171V28.9595C22.7404 28.8377 22.6906 28.7214 22.6028 28.6359C22.5151 28.5506 22.3965 28.5029 22.2732 28.5029H17.7244C17.6012 28.5029 17.4826 28.5506 17.3948 28.6359C17.307 28.7214 17.2573 28.8377 17.2573 28.9595V37.171C17.2573 37.2928 17.307 37.4091 17.3948 37.4946C17.4826 37.5799 17.6012 37.6276 17.7244 37.6276ZM21.8061 29.416V36.7145H18.1915V29.416H21.8061ZM26.2064 34.824H30.7552C30.8784 34.824 30.997 34.7764 31.0848 34.691C31.1726 34.6055 31.2223 34.4892 31.2223 34.3674V29.9416C31.2223 29.8198 31.1726 29.7035 31.0848 29.618C30.997 29.5326 30.8784 29.485 30.7552 29.485H26.2064C26.0832 29.485 25.9646 29.5326 25.8768 29.618C25.789 29.7035 25.7393 29.8198 25.7393 29.9416V34.3674C25.7393 34.4892 25.789 34.6055 25.8768 34.691C25.9646 34.7764 26.0832 34.824 26.2064 34.824ZM30.2881 30.3981V33.9109H26.6735V30.3981H30.2881Z" fill="#1B88D7" stroke="#1B88D7" stroke-width="0.15"/>
</g>
<defs>
<clipPath id="clip0_2_233">
<rect width="40" height="40" fill="white"/>
</clipPath>
</defs>
</svg>
