<svg width="30" height="23" viewBox="0 0 30 23" fill="none" xmlns="http://www.w3.org/2000/svg">
<path d="M23.7871 8.32868C23.7244 3.75481 19.9842 0.0529785 15.3957 0.0529785C13.3546 0.0529785 11.3881 0.795477 9.85873 2.14372C8.49373 3.34694 7.55999 4.95486 7.1902 6.72023C7.16319 6.71994 7.13641 6.7197 7.10969 6.7197C3.18949 6.7197 0 9.90913 0 13.8294C0 17.7497 3.18949 20.9391 7.10975 20.9391H12.0752C12.4284 20.9391 12.7149 20.6527 12.7149 20.2993C12.7149 19.9459 12.4284 19.6595 12.0752 19.6595H7.10975C3.89495 19.6595 1.27957 17.0441 1.27957 13.8294C1.27957 10.6147 3.89495 7.99927 7.10975 7.99927C7.28102 7.99927 7.46207 8.00847 7.66334 8.0274C8.00448 8.05933 8.31075 7.81669 8.35721 7.47685C8.5876 5.78818 9.42133 4.23504 10.7049 3.10354C12.0004 1.96143 13.6663 1.33249 15.3957 1.33249C19.3176 1.33249 22.5083 4.5232 22.5083 8.44511C22.5083 8.58632 22.4978 8.73187 22.4867 8.88597L22.482 8.95148C22.4754 9.04447 22.4892 9.13777 22.5225 9.22486C22.5558 9.31194 22.6077 9.3907 22.6746 9.45562C22.7414 9.52056 22.8217 9.5701 22.9097 9.60077C22.9977 9.63144 23.0914 9.64249 23.1842 9.63315C23.3537 9.61605 23.524 9.60744 23.6944 9.60737C26.4657 9.60737 28.7204 11.8621 28.7204 14.6334C28.7204 17.4047 26.4657 19.6594 23.6944 19.6594H18.473C18.1198 19.6594 17.8333 19.9458 17.8333 20.2992C17.8333 20.6526 18.1198 20.939 18.473 20.939H23.6944C27.1713 20.939 30 18.1104 30 14.6334C29.9999 11.1877 27.2214 8.37843 23.7871 8.32868Z" fill="#1B88D7"/>
<path d="M18.8896 13.2966L16.1136 10.8168C15.6351 10.3891 14.9131 10.3892 14.4343 10.8168L11.6583 13.2967C11.3439 13.5774 11.3168 14.0599 11.5976 14.3743C11.8783 14.6885 12.3607 14.7158 12.6752 14.435L14.5108 12.7952V22.1839C14.5108 22.6054 14.8525 22.9471 15.274 22.9471C15.6954 22.9471 16.0371 22.6054 16.0371 22.1839V12.7951L17.8729 14.4349C18.0125 14.5601 18.1935 14.6292 18.381 14.629C18.4885 14.6291 18.5949 14.6065 18.693 14.5626C18.7912 14.5187 18.8789 14.4545 18.9505 14.3742C19.2311 14.0598 19.2039 13.5774 18.8896 13.2966Z" fill="#1B88D7"/>
</svg>
