<svg width="40" height="40" viewBox="0 0 40 40" fill="none" xmlns="http://www.w3.org/2000/svg">
<mask id="path-1-outside-1_2_255" maskUnits="userSpaceOnUse" x="1.54541" y="1.57092" width="37" height="37" fill="black">
<rect fill="white" x="1.54541" y="1.57092" width="37" height="37"/>
<path d="M2.90905 37.4291H37.0909C37.1873 37.4291 37.2798 37.3908 37.348 37.3226C37.4162 37.2544 37.4545 37.1619 37.4545 37.0655C37.4545 36.969 37.4162 36.8765 37.348 36.8083C37.2798 36.7401 37.1873 36.7018 37.0909 36.7018H34.7563V15.9164C34.7554 15.6576 34.6519 15.4097 34.4685 15.227C34.2852 15.0444 34.0369 14.9418 33.7781 14.9418H21.4545C21.3696 14.9427 21.2852 14.9549 21.2036 14.9782V9.40729C21.2026 9.07582 21.0705 8.7582 20.8362 8.52382C20.6018 8.28944 20.2841 8.15734 19.9527 8.15638H18.3127V5.95274C18.3127 5.63448 18.1863 5.32926 17.9612 5.10421C17.7362 4.87917 17.4309 4.75274 17.1127 4.75274H13.589V2.93456C13.589 2.83812 13.5507 2.74562 13.4825 2.67743C13.4143 2.60923 13.3219 2.57092 13.2254 2.57092C13.129 2.57092 13.0365 2.60923 12.9683 2.67743C12.9001 2.74562 12.8618 2.83812 12.8618 2.93456V4.75274H9.33814C9.01954 4.75274 8.71394 4.87905 8.48832 5.10399C8.2627 5.32893 8.13546 5.63415 8.1345 5.95274V8.15638H6.4945C6.16303 8.15734 5.84542 8.28944 5.61103 8.52382C5.37665 8.7582 5.24455 9.07582 5.24359 9.40729V36.7018H2.90905C2.8126 36.7018 2.72011 36.7401 2.65192 36.8083C2.58372 36.8765 2.54541 36.969 2.54541 37.0655C2.54541 37.1619 2.58372 37.2544 2.65192 37.3226C2.72011 37.3908 2.8126 37.4291 2.90905 37.4291ZM10.589 36.7018V33.7018C10.589 33.0026 10.8668 32.3321 11.3612 31.8376C11.8556 31.3432 12.5262 31.0655 13.2254 31.0655C13.9246 31.0655 14.5952 31.3432 15.0896 31.8376C15.584 32.3321 15.8618 33.0026 15.8618 33.7018V36.7018H10.589ZM21.4545 15.6691H33.7781C33.8109 15.6686 33.8435 15.6747 33.8739 15.6869C33.9043 15.6991 33.932 15.7172 33.9553 15.7402C33.9787 15.7632 33.9972 15.7907 34.0099 15.8209C34.0225 15.8511 34.0291 15.8836 34.029 15.9164V17.3236H25.5163C25.4199 17.3236 25.3274 17.362 25.2592 17.4302C25.191 17.4984 25.1527 17.5908 25.1527 17.6873V20.7964C25.1527 20.8928 25.191 20.9853 25.2592 21.0535C25.3274 21.1217 25.4199 21.16 25.5163 21.16H34.029V22.84H25.5163C25.4199 22.84 25.3274 22.8783 25.2592 22.9465C25.191 23.0147 25.1527 23.1072 25.1527 23.2036V26.3127C25.1527 26.4092 25.191 26.5017 25.2592 26.5699C25.3274 26.6381 25.4199 26.6764 25.5163 26.6764H34.029V28.4255H25.5163C25.4199 28.4255 25.3274 28.4638 25.2592 28.532C25.191 28.6002 25.1527 28.6927 25.1527 28.7891V31.8982C25.1527 31.9946 25.191 32.0871 25.2592 32.1553C25.3274 32.2235 25.4199 32.2618 25.5163 32.2618H34.029V36.7018H21.2072V15.9164C21.2072 15.8508 21.2333 15.7879 21.2797 15.7415C21.326 15.6952 21.3889 15.6691 21.4545 15.6691ZM34.0218 18.0509V20.4327H25.88V18.0509H34.0218ZM34.0218 23.5673V25.9491H25.88V23.5673H34.0218ZM34.0218 29.1527V31.5346H25.88V29.1527H34.0218ZM8.85814 5.95274C8.8591 5.82703 8.90971 5.7068 8.99894 5.61825C9.08817 5.5297 9.20879 5.48001 9.3345 5.48001H17.1127C17.2381 5.48001 17.3583 5.52982 17.447 5.61847C17.5356 5.70713 17.5854 5.82737 17.5854 5.95274V8.15638H8.85814V5.95274ZM5.96723 9.40729C5.96818 9.2687 6.02366 9.13607 6.12165 9.03807C6.21965 8.94008 6.35228 8.8846 6.49086 8.88365H19.9454C20.084 8.8846 20.2166 8.94008 20.3146 9.03807C20.4126 9.13607 20.4681 9.2687 20.469 9.40729V36.7018H16.589V33.7018C16.589 32.8097 16.2347 31.9542 15.6039 31.3234C14.9731 30.6926 14.1175 30.3382 13.2254 30.3382C12.3333 30.3382 11.4778 30.6926 10.847 31.3234C10.2162 31.9542 9.86177 32.8097 9.86177 33.7018V36.7018H5.97086L5.96723 9.40729ZM9.8945 28.9346C9.99094 28.9346 10.0834 28.8962 10.1516 28.8281C10.2198 28.7599 10.2581 28.6674 10.2581 28.5709V10.5709C10.2581 10.4745 10.2198 10.382 10.1516 10.3138C10.0834 10.2456 9.99094 10.2073 9.8945 10.2073H7.65814C7.5617 10.2073 7.4692 10.2456 7.40101 10.3138C7.33281 10.382 7.2945 10.4745 7.2945 10.5709V28.5709C7.2945 28.6674 7.33281 28.7599 7.40101 28.8281C7.4692 28.8962 7.5617 28.9346 7.65814 28.9346H9.8945ZM8.01814 10.9346H9.53086V28.2073H8.02177L8.01814 10.9346ZM12.1018 28.9346H14.3418C14.4382 28.9346 14.5307 28.8962 14.5989 28.8281C14.6671 28.7599 14.7054 28.6674 14.7054 28.5709V10.5709C14.7054 10.4745 14.6671 10.382 14.5989 10.3138C14.5307 10.2456 14.4382 10.2073 14.3418 10.2073H12.1054C12.009 10.2073 11.9165 10.2456 11.8483 10.3138C11.7801 10.382 11.7418 10.4745 11.7418 10.5709V28.5709C11.7418 28.6674 11.7801 28.7599 11.8483 28.8281C11.9165 28.8962 12.009 28.9346 12.1054 28.9346H12.1018ZM12.4654 10.9346H13.9781V28.2073H12.469L12.4654 10.9346ZM16.549 28.9346H18.789C18.8855 28.9346 18.978 28.8962 19.0462 28.8281C19.1144 28.7599 19.1527 28.6674 19.1527 28.5709V10.5709C19.1527 10.4745 19.1144 10.382 19.0462 10.3138C18.978 10.2456 18.8855 10.2073 18.789 10.2073H16.5527C16.4562 10.2073 16.3637 10.2456 16.2956 10.3138C16.2274 10.382 16.189 10.4745 16.189 10.5709V28.5709C16.189 28.6674 16.2274 28.7599 16.2956 28.8281C16.3637 28.8962 16.4562 28.9346 16.5527 28.9346H16.549ZM16.9127 10.9346H18.4254V28.2073H16.9163L16.9127 10.9346Z"/>
</mask>
<path d="M2.90905 37.4291H37.0909C37.1873 37.4291 37.2798 37.3908 37.348 37.3226C37.4162 37.2544 37.4545 37.1619 37.4545 37.0655C37.4545 36.969 37.4162 36.8765 37.348 36.8083C37.2798 36.7401 37.1873 36.7018 37.0909 36.7018H34.7563V15.9164C34.7554 15.6576 34.6519 15.4097 34.4685 15.227C34.2852 15.0444 34.0369 14.9418 33.7781 14.9418H21.4545C21.3696 14.9427 21.2852 14.9549 21.2036 14.9782V9.40729C21.2026 9.07582 21.0705 8.7582 20.8362 8.52382C20.6018 8.28944 20.2841 8.15734 19.9527 8.15638H18.3127V5.95274C18.3127 5.63448 18.1863 5.32926 17.9612 5.10421C17.7362 4.87917 17.4309 4.75274 17.1127 4.75274H13.589V2.93456C13.589 2.83812 13.5507 2.74562 13.4825 2.67743C13.4143 2.60923 13.3219 2.57092 13.2254 2.57092C13.129 2.57092 13.0365 2.60923 12.9683 2.67743C12.9001 2.74562 12.8618 2.83812 12.8618 2.93456V4.75274H9.33814C9.01954 4.75274 8.71394 4.87905 8.48832 5.10399C8.2627 5.32893 8.13546 5.63415 8.1345 5.95274V8.15638H6.4945C6.16303 8.15734 5.84542 8.28944 5.61103 8.52382C5.37665 8.7582 5.24455 9.07582 5.24359 9.40729V36.7018H2.90905C2.8126 36.7018 2.72011 36.7401 2.65192 36.8083C2.58372 36.8765 2.54541 36.969 2.54541 37.0655C2.54541 37.1619 2.58372 37.2544 2.65192 37.3226C2.72011 37.3908 2.8126 37.4291 2.90905 37.4291ZM10.589 36.7018V33.7018C10.589 33.0026 10.8668 32.3321 11.3612 31.8376C11.8556 31.3432 12.5262 31.0655 13.2254 31.0655C13.9246 31.0655 14.5952 31.3432 15.0896 31.8376C15.584 32.3321 15.8618 33.0026 15.8618 33.7018V36.7018H10.589ZM21.4545 15.6691H33.7781C33.8109 15.6686 33.8435 15.6747 33.8739 15.6869C33.9043 15.6991 33.932 15.7172 33.9553 15.7402C33.9787 15.7632 33.9972 15.7907 34.0099 15.8209C34.0225 15.8511 34.0291 15.8836 34.029 15.9164V17.3236H25.5163C25.4199 17.3236 25.3274 17.362 25.2592 17.4302C25.191 17.4984 25.1527 17.5908 25.1527 17.6873V20.7964C25.1527 20.8928 25.191 20.9853 25.2592 21.0535C25.3274 21.1217 25.4199 21.16 25.5163 21.16H34.029V22.84H25.5163C25.4199 22.84 25.3274 22.8783 25.2592 22.9465C25.191 23.0147 25.1527 23.1072 25.1527 23.2036V26.3127C25.1527 26.4092 25.191 26.5017 25.2592 26.5699C25.3274 26.6381 25.4199 26.6764 25.5163 26.6764H34.029V28.4255H25.5163C25.4199 28.4255 25.3274 28.4638 25.2592 28.532C25.191 28.6002 25.1527 28.6927 25.1527 28.7891V31.8982C25.1527 31.9946 25.191 32.0871 25.2592 32.1553C25.3274 32.2235 25.4199 32.2618 25.5163 32.2618H34.029V36.7018H21.2072V15.9164C21.2072 15.8508 21.2333 15.7879 21.2797 15.7415C21.326 15.6952 21.3889 15.6691 21.4545 15.6691ZM34.0218 18.0509V20.4327H25.88V18.0509H34.0218ZM34.0218 23.5673V25.9491H25.88V23.5673H34.0218ZM34.0218 29.1527V31.5346H25.88V29.1527H34.0218ZM8.85814 5.95274C8.8591 5.82703 8.90971 5.7068 8.99894 5.61825C9.08817 5.5297 9.20879 5.48001 9.3345 5.48001H17.1127C17.2381 5.48001 17.3583 5.52982 17.447 5.61847C17.5356 5.70713 17.5854 5.82737 17.5854 5.95274V8.15638H8.85814V5.95274ZM5.96723 9.40729C5.96818 9.2687 6.02366 9.13607 6.12165 9.03807C6.21965 8.94008 6.35228 8.8846 6.49086 8.88365H19.9454C20.084 8.8846 20.2166 8.94008 20.3146 9.03807C20.4126 9.13607 20.4681 9.2687 20.469 9.40729V36.7018H16.589V33.7018C16.589 32.8097 16.2347 31.9542 15.6039 31.3234C14.9731 30.6926 14.1175 30.3382 13.2254 30.3382C12.3333 30.3382 11.4778 30.6926 10.847 31.3234C10.2162 31.9542 9.86177 32.8097 9.86177 33.7018V36.7018H5.97086L5.96723 9.40729ZM9.8945 28.9346C9.99094 28.9346 10.0834 28.8962 10.1516 28.8281C10.2198 28.7599 10.2581 28.6674 10.2581 28.5709V10.5709C10.2581 10.4745 10.2198 10.382 10.1516 10.3138C10.0834 10.2456 9.99094 10.2073 9.8945 10.2073H7.65814C7.5617 10.2073 7.4692 10.2456 7.40101 10.3138C7.33281 10.382 7.2945 10.4745 7.2945 10.5709V28.5709C7.2945 28.6674 7.33281 28.7599 7.40101 28.8281C7.4692 28.8962 7.5617 28.9346 7.65814 28.9346H9.8945ZM8.01814 10.9346H9.53086V28.2073H8.02177L8.01814 10.9346ZM12.1018 28.9346H14.3418C14.4382 28.9346 14.5307 28.8962 14.5989 28.8281C14.6671 28.7599 14.7054 28.6674 14.7054 28.5709V10.5709C14.7054 10.4745 14.6671 10.382 14.5989 10.3138C14.5307 10.2456 14.4382 10.2073 14.3418 10.2073H12.1054C12.009 10.2073 11.9165 10.2456 11.8483 10.3138C11.7801 10.382 11.7418 10.4745 11.7418 10.5709V28.5709C11.7418 28.6674 11.7801 28.7599 11.8483 28.8281C11.9165 28.8962 12.009 28.9346 12.1054 28.9346H12.1018ZM12.4654 10.9346H13.9781V28.2073H12.469L12.4654 10.9346ZM16.549 28.9346H18.789C18.8855 28.9346 18.978 28.8962 19.0462 28.8281C19.1144 28.7599 19.1527 28.6674 19.1527 28.5709V10.5709C19.1527 10.4745 19.1144 10.382 19.0462 10.3138C18.978 10.2456 18.8855 10.2073 18.789 10.2073H16.5527C16.4562 10.2073 16.3637 10.2456 16.2956 10.3138C16.2274 10.382 16.189 10.4745 16.189 10.5709V28.5709C16.189 28.6674 16.2274 28.7599 16.2956 28.8281C16.3637 28.8962 16.4562 28.9346 16.5527 28.9346H16.549ZM16.9127 10.9346H18.4254V28.2073H16.9163L16.9127 10.9346Z" fill="#B1B6B9"/>
<path d="M2.90905 37.4291H37.0909C37.1873 37.4291 37.2798 37.3908 37.348 37.3226C37.4162 37.2544 37.4545 37.1619 37.4545 37.0655C37.4545 36.969 37.4162 36.8765 37.348 36.8083C37.2798 36.7401 37.1873 36.7018 37.0909 36.7018H34.7563V15.9164C34.7554 15.6576 34.6519 15.4097 34.4685 15.227C34.2852 15.0444 34.0369 14.9418 33.7781 14.9418H21.4545C21.3696 14.9427 21.2852 14.9549 21.2036 14.9782V9.40729C21.2026 9.07582 21.0705 8.7582 20.8362 8.52382C20.6018 8.28944 20.2841 8.15734 19.9527 8.15638H18.3127V5.95274C18.3127 5.63448 18.1863 5.32926 17.9612 5.10421C17.7362 4.87917 17.4309 4.75274 17.1127 4.75274H13.589V2.93456C13.589 2.83812 13.5507 2.74562 13.4825 2.67743C13.4143 2.60923 13.3219 2.57092 13.2254 2.57092C13.129 2.57092 13.0365 2.60923 12.9683 2.67743C12.9001 2.74562 12.8618 2.83812 12.8618 2.93456V4.75274H9.33814C9.01954 4.75274 8.71394 4.87905 8.48832 5.10399C8.2627 5.32893 8.13546 5.63415 8.1345 5.95274V8.15638H6.4945C6.16303 8.15734 5.84542 8.28944 5.61103 8.52382C5.37665 8.7582 5.24455 9.07582 5.24359 9.40729V36.7018H2.90905C2.8126 36.7018 2.72011 36.7401 2.65192 36.8083C2.58372 36.8765 2.54541 36.969 2.54541 37.0655C2.54541 37.1619 2.58372 37.2544 2.65192 37.3226C2.72011 37.3908 2.8126 37.4291 2.90905 37.4291ZM10.589 36.7018V33.7018C10.589 33.0026 10.8668 32.3321 11.3612 31.8376C11.8556 31.3432 12.5262 31.0655 13.2254 31.0655C13.9246 31.0655 14.5952 31.3432 15.0896 31.8376C15.584 32.3321 15.8618 33.0026 15.8618 33.7018V36.7018H10.589ZM21.4545 15.6691H33.7781C33.8109 15.6686 33.8435 15.6747 33.8739 15.6869C33.9043 15.6991 33.932 15.7172 33.9553 15.7402C33.9787 15.7632 33.9972 15.7907 34.0099 15.8209C34.0225 15.8511 34.0291 15.8836 34.029 15.9164V17.3236H25.5163C25.4199 17.3236 25.3274 17.362 25.2592 17.4302C25.191 17.4984 25.1527 17.5908 25.1527 17.6873V20.7964C25.1527 20.8928 25.191 20.9853 25.2592 21.0535C25.3274 21.1217 25.4199 21.16 25.5163 21.16H34.029V22.84H25.5163C25.4199 22.84 25.3274 22.8783 25.2592 22.9465C25.191 23.0147 25.1527 23.1072 25.1527 23.2036V26.3127C25.1527 26.4092 25.191 26.5017 25.2592 26.5699C25.3274 26.6381 25.4199 26.6764 25.5163 26.6764H34.029V28.4255H25.5163C25.4199 28.4255 25.3274 28.4638 25.2592 28.532C25.191 28.6002 25.1527 28.6927 25.1527 28.7891V31.8982C25.1527 31.9946 25.191 32.0871 25.2592 32.1553C25.3274 32.2235 25.4199 32.2618 25.5163 32.2618H34.029V36.7018H21.2072V15.9164C21.2072 15.8508 21.2333 15.7879 21.2797 15.7415C21.326 15.6952 21.3889 15.6691 21.4545 15.6691ZM34.0218 18.0509V20.4327H25.88V18.0509H34.0218ZM34.0218 23.5673V25.9491H25.88V23.5673H34.0218ZM34.0218 29.1527V31.5346H25.88V29.1527H34.0218ZM8.85814 5.95274C8.8591 5.82703 8.90971 5.7068 8.99894 5.61825C9.08817 5.5297 9.20879 5.48001 9.3345 5.48001H17.1127C17.2381 5.48001 17.3583 5.52982 17.447 5.61847C17.5356 5.70713 17.5854 5.82737 17.5854 5.95274V8.15638H8.85814V5.95274ZM5.96723 9.40729C5.96818 9.2687 6.02366 9.13607 6.12165 9.03807C6.21965 8.94008 6.35228 8.8846 6.49086 8.88365H19.9454C20.084 8.8846 20.2166 8.94008 20.3146 9.03807C20.4126 9.13607 20.4681 9.2687 20.469 9.40729V36.7018H16.589V33.7018C16.589 32.8097 16.2347 31.9542 15.6039 31.3234C14.9731 30.6926 14.1175 30.3382 13.2254 30.3382C12.3333 30.3382 11.4778 30.6926 10.847 31.3234C10.2162 31.9542 9.86177 32.8097 9.86177 33.7018V36.7018H5.97086L5.96723 9.40729ZM9.8945 28.9346C9.99094 28.9346 10.0834 28.8962 10.1516 28.8281C10.2198 28.7599 10.2581 28.6674 10.2581 28.5709V10.5709C10.2581 10.4745 10.2198 10.382 10.1516 10.3138C10.0834 10.2456 9.99094 10.2073 9.8945 10.2073H7.65814C7.5617 10.2073 7.4692 10.2456 7.40101 10.3138C7.33281 10.382 7.2945 10.4745 7.2945 10.5709V28.5709C7.2945 28.6674 7.33281 28.7599 7.40101 28.8281C7.4692 28.8962 7.5617 28.9346 7.65814 28.9346H9.8945ZM8.01814 10.9346H9.53086V28.2073H8.02177L8.01814 10.9346ZM12.1018 28.9346H14.3418C14.4382 28.9346 14.5307 28.8962 14.5989 28.8281C14.6671 28.7599 14.7054 28.6674 14.7054 28.5709V10.5709C14.7054 10.4745 14.6671 10.382 14.5989 10.3138C14.5307 10.2456 14.4382 10.2073 14.3418 10.2073H12.1054C12.009 10.2073 11.9165 10.2456 11.8483 10.3138C11.7801 10.382 11.7418 10.4745 11.7418 10.5709V28.5709C11.7418 28.6674 11.7801 28.7599 11.8483 28.8281C11.9165 28.8962 12.009 28.9346 12.1054 28.9346H12.1018ZM12.4654 10.9346H13.9781V28.2073H12.469L12.4654 10.9346ZM16.549 28.9346H18.789C18.8855 28.9346 18.978 28.8962 19.0462 28.8281C19.1144 28.7599 19.1527 28.6674 19.1527 28.5709V10.5709C19.1527 10.4745 19.1144 10.382 19.0462 10.3138C18.978 10.2456 18.8855 10.2073 18.789 10.2073H16.5527C16.4562 10.2073 16.3637 10.2456 16.2956 10.3138C16.2274 10.382 16.189 10.4745 16.189 10.5709V28.5709C16.189 28.6674 16.2274 28.7599 16.2956 28.8281C16.3637 28.8962 16.4562 28.9346 16.5527 28.9346H16.549ZM16.9127 10.9346H18.4254V28.2073H16.9163L16.9127 10.9346Z" stroke="#B1B6B9" stroke-width="0.3" mask="url(#path-1-outside-1_2_255)"/>
</svg>
